<?xml version="1.0" standalone="no"?>
<!DOCTYPE svg PUBLIC "-//W3C//DTD SVG 20010904//EN"
 "http://www.w3.org/TR/2001/REC-SVG-20010904/DTD/svg10.dtd">
<svg version="1.0" xmlns="http://www.w3.org/2000/svg"
 width="1080.000000pt" height="1920.000000pt" viewBox="0 0 1080.000000 1920.000000"
 preserveAspectRatio="xMidYMid meet">

<g transform="translate(0.000000,1920.000000) scale(0.100000,-0.100000)"
fill="#000000" stroke="none">
<path d="M0 11131 l0 -8068 83 -6 c45 -4 98 -12 117 -19 45 -17 120 -59 117
-67 -1 -3 1 -6 5 -6 12 0 88 -78 88 -91 0 -7 -7 -15 -16 -18 -12 -5 -14 -9 -5
-20 9 -10 7 -17 -5 -27 -13 -11 -17 -10 -25 2 -5 8 -9 17 -9 22 0 17 -30 5
-30 -13 0 -11 7 -20 15 -20 10 0 14 -9 11 -31 -4 -34 -26 -65 -26 -36 0 15
-11 17 -80 17 -64 0 -80 -3 -80 -15 0 -11 -11 -15 -40 -15 -22 0 -40 -4 -40
-10 0 -5 -18 -10 -40 -10 l-40 0 0 -1350 0 -1350 5400 0 5400 0 0 7935 0 7936
-65 65 c-36 36 -65 70 -65 75 0 5 -6 9 -13 9 -8 0 -19 12 -26 28 -30 65 -66
111 -88 112 -14 0 -23 -6 -23 -15 0 -9 -7 -18 -16 -22 -9 -3 -27 -16 -41 -29
-19 -18 -30 -21 -44 -14 -11 6 -20 6 -24 1 -3 -5 3 -11 12 -13 45 -10 -120
-58 -195 -58 -59 0 -85 10 -71 26 14 17 -2 19 -18 3 -8 -8 -21 -8 -48 1 -25 8
-33 15 -25 20 7 5 11 19 8 34 -3 14 -2 23 2 21 4 -3 11 6 14 20 5 21 12 25 46
25 26 0 40 5 40 13 0 7 16 21 35 31 20 11 38 30 41 43 5 19 13 23 45 23 21 0
39 5 39 10 0 6 18 10 40 10 22 0 40 4 40 9 0 5 36 12 80 16 44 4 80 11 80 15
0 5 17 14 38 21 20 6 39 15 42 18 16 19 56 31 105 31 l55 0 0 1400 0 1400
-5400 0 -5400 0 0 -8069z m1660 5825 c0 -11 -19 -15 -25 -6 -3 5 1 10 9 10 9
0 16 -2 16 -4z m-213 -68 c-3 -8 -6 -5 -6 6 -1 11 2 17 5 13 3 -3 4 -12 1 -19z
m61 -20 c19 -19 14 -26 -13 -20 -25 4 -31 13 -18 25 9 10 17 9 31 -5z m15 -83
c-3 -9 -8 -14 -10 -11 -3 3 -2 9 2 15 9 16 15 13 8 -4z m-39 -11 c3 -8 2 -12
-4 -9 -6 3 -10 10 -10 16 0 14 7 11 14 -7z m-164 -4 c0 -5 -4 -10 -10 -10 -5
0 -10 5 -10 10 0 6 5 10 10 10 6 0 10 -4 10 -10z m135 -50 c-3 -6 -16 -10 -28
-10 -20 1 -20 2 -4 11 9 5 17 18 17 27 1 16 1 16 11 -1 5 -9 7 -22 4 -27z
m-95 16 c0 -7 -13 -16 -28 -18 -37 -5 -52 0 -52 18 0 10 12 14 40 14 27 0 40
-4 40 -14z m-227 -99 c8 -6 7 -7 -3 -4 -10 2 -15 18 -16 48 -1 44 -1 44 3 4 3
-22 10 -44 16 -48z m242 37 c-8 -6 -15 -16 -15 -21 0 -6 -10 -13 -22 -16 -13
-2 -31 -8 -40 -12 -11 -4 -18 -3 -18 4 0 6 9 11 20 11 11 0 20 6 20 13 0 21
20 35 46 33 20 -1 22 -3 9 -12z m-160 -44 c-4 -6 -1 -17 5 -25 10 -11 7 -15
-14 -21 -27 -6 -71 5 -49 13 7 2 10 10 7 18 -5 12 3 16 49 24 5 0 5 -4 2 -9z
m-87 -68 c2 -8 -9 -12 -35 -12 -38 1 -38 1 -13 15 28 16 42 15 48 -3z m-343
-22 c4 -6 -8 -10 -29 -10 -19 0 -38 5 -41 10 -4 6 8 10 29 10 19 0 38 -4 41
-10z m9132 -342 c-3 -7 -5 -2 -5 12 0 14 2 19 5 13 2 -7 2 -19 0 -25z m-1277
-1253 c0 -11 11 -15 40 -15 39 0 40 -1 40 -35 0 -34 1 -35 40 -35 36 0 40 3
40 25 0 22 4 25 34 25 19 0 43 3 53 6 14 4 15 4 4 -4 -17 -13 -6 -32 20 -32
17 0 18 -3 7 -22 -7 -12 -19 -28 -25 -36 -17 -18 -16 -22 3 -22 8 0 13 4 10 9
-3 5 1 11 9 15 21 8 31 -15 12 -29 -21 -15 -22 -26 -2 -19 17 7 19 1 6 -24 -5
-9 -20 -55 -32 -102 -12 -47 -26 -87 -30 -90 -4 -3 -18 -25 -31 -50 -50 -95
-69 -119 -86 -113 -14 6 -15 4 -4 -9 10 -13 3 -24 -46 -74 -66 -67 -207 -168
-222 -159 -5 3 -10 1 -10 -5 0 -16 -95 -56 -197 -82 -65 -16 -117 -22 -198
-22 -109 0 -269 24 -289 44 -6 6 -17 10 -25 10 -16 0 -123 50 -131 62 -3 4
-22 14 -42 22 -20 9 -43 25 -51 36 -7 11 -16 18 -19 15 -5 -6 -99 83 -133 125
-80 100 -163 266 -168 338 -1 17 -4 28 -6 26 -2 -2 -10 4 -18 14 -12 16 -14
16 -27 0 -7 -10 -23 -18 -35 -18 -22 0 -22 0 4 29 18 18 34 27 46 24 11 -3 21
1 25 11 3 9 14 16 24 16 11 0 22 5 25 10 9 14 42 12 49 -2 5 -10 7 -10 12 0 3
6 12 12 19 12 7 0 16 -6 18 -12 3 -7 6 -3 6 9 2 40 12 53 45 53 17 0 48 9 69
20 44 24 47 24 47 5 0 -12 16 -15 80 -15 84 0 86 1 81 52 -3 23 16 24 527 26
378 2 432 0 432 -13z m335 -35 c8 -13 -5 -13 -25 0 -13 8 -13 10 2 10 9 0 20
-4 23 -10z m602 -16 c-3 -3 -12 -4 -19 -1 -8 3 -5 6 6 6 11 1 17 -2 13 -5z
m-533 -68 c9 3 16 10 16 15 0 5 9 9 21 9 12 0 19 -5 17 -12 -3 -7 -11 -13 -18
-13 -21 0 -23 -23 -3 -28 10 -3 3 -5 -15 -6 -34 -1 -122 33 -122 48 0 19 15
19 51 1 21 -11 45 -17 53 -14z m96 -6 c0 -5 -2 -10 -4 -10 -3 0 -8 5 -11 10
-3 6 -1 10 4 10 6 0 11 -4 11 -10z m510 -10 c0 -5 -4 -10 -10 -10 -5 0 -10 5
-10 10 0 6 5 10 10 10 6 0 10 -4 10 -10z m-507 -30 c16 0 18 -3 10 -11 -7 -7
-23 -9 -38 -5 -23 6 -25 9 -14 23 8 9 15 11 17 4 2 -6 13 -11 25 -11z m34 14
c-3 -3 -12 -4 -19 -1 -8 3 -5 6 6 6 11 1 17 -2 13 -5z m-2043 -25 c-3 -5 -10
-7 -15 -3 -5 3 -7 10 -3 15 3 5 10 7 15 3 5 -3 7 -10 3 -15z m2395 5 c2 -2 2
-6 0 -8 -7 -8 -89 6 -89 14 0 8 80 2 89 -6z m-216 -1 c-7 -2 -19 -2 -25 0 -7
3 -2 5 12 5 14 0 19 -2 13 -5z m114 1 c-3 -3 -12 -4 -19 -1 -8 3 -5 6 6 6 11
1 17 -2 13 -5z m-2749 -53 c-5 -2 -14 3 -19 10 -4 8 -13 15 -19 15 -23 3 -24
5 -11 13 10 7 22 3 37 -12 13 -12 18 -24 12 -26z m422 29 c0 -13 -7 -20 -20
-20 -13 0 -20 7 -20 20 0 13 7 20 20 20 13 0 20 -7 20 -20z m-147 -5 c72 6 85
4 90 -9 4 -9 18 -16 32 -16 38 0 30 -17 -12 -25 -73 -13 -233 -17 -233 -6 0 6
28 9 74 8 70 -2 98 5 83 20 -4 3 -35 9 -69 12 -42 4 -63 11 -65 21 -4 12 -3
13 5 1 8 -11 28 -12 95 -6z m2482 5 c-8 -13 -195 -13 -215 0 -10 7 23 10 103
10 76 0 116 -4 112 -10z m-2660 -40 c-3 -5 -18 -10 -33 -9 l-27 1 25 8 c35 11
42 11 35 0z m-4245 -9706 c41 -9 79 -20 85 -25 5 -5 17 -9 26 -9 10 0 30 -7
46 -15 15 -8 48 -24 73 -35 59 -27 82 -41 98 -62 7 -10 19 -18 25 -18 7 0 26
-14 44 -30 18 -17 37 -30 42 -30 6 0 11 -3 11 -7 0 -5 19 -28 43 -53 80 -85
149 -204 183 -320 16 -53 36 -76 56 -63 22 13 80 33 133 45 75 16 216 21 228
9 6 -6 28 -11 49 -11 21 0 46 -4 56 -9 9 -5 38 -18 64 -28 27 -10 48 -21 48
-25 0 -3 15 -11 34 -18 18 -6 50 -27 70 -48 19 -20 51 -53 71 -72 34 -34 45
-60 25 -60 -5 0 -10 4 -10 9 0 5 -14 13 -31 16 -24 6 -34 3 -41 -9 -5 -9 -22
-16 -37 -16 -35 0 -88 -26 -69 -33 7 -3 -47 -6 -119 -6 -111 -1 -133 -3 -133
-16 0 -11 -11 -15 -40 -15 -35 0 -40 -3 -40 -24 0 -22 -4 -23 -120 -36 -113
-12 -120 -14 -120 -35 0 -21 -3 -22 -182 -28 -395 -15 -538 -5 -538 35 0 16
-9 18 -80 18 -61 0 -80 -3 -80 -14 0 -9 -20 -15 -61 -20 -93 -9 -99 -8 -99 14
0 18 -7 20 -79 20 -55 0 -81 -4 -84 -12 -3 -10 -7 -10 -20 1 -23 18 -21 31 3
31 12 0 20 7 20 17 0 9 -3 13 -6 10 -4 -3 -19 7 -34 23 -16 17 -31 30 -34 30
-12 0 -6 -58 7 -63 26 -9 -1 -12 -85 -9 l-88 3 0 34 0 33 -82 6 c-157 12 -163
13 -80 14 107 3 109 22 2 22 -44 0 -80 4 -80 9 0 5 -36 12 -80 16 -44 4 -82
10 -84 14 -2 3 16 4 40 2 27 -2 44 1 44 8 0 6 -17 11 -37 11 -23 0 -52 9 -72
23 -19 12 -44 28 -55 35 -19 11 -16 12 22 8 37 -4 42 -2 42 15 0 21 -16 26
-23 7 -3 -7 -4 -1 -3 15 2 15 6 30 9 34 4 3 7 17 7 30 0 12 5 23 10 23 6 0 10
14 10 30 0 17 4 38 9 48 5 9 26 52 47 94 22 43 42 78 47 78 4 0 7 6 7 13 0 7
10 23 23 34 12 11 45 45 72 75 28 30 66 65 85 78 19 14 41 30 48 37 6 6 21 15
32 18 11 3 20 10 20 14 0 10 140 75 207 96 139 44 353 52 503 19z m-1640 -699
c-14 -16 -38 -19 -67 -8 -14 6 -8 9 22 14 22 3 44 7 49 8 5 0 3 -6 -4 -14z
m358 -12 c44 -12 51 -17 41 -29 -6 -8 -19 -13 -28 -13 -13 1 -13 2 2 6 9 2 17
9 17 14 0 12 -37 12 -44 0 -6 -8 -46 -22 -46 -16 0 2 7 11 16 19 14 15 11 16
-35 16 -30 0 -51 4 -51 11 0 7 -14 8 -40 4 -28 -5 -40 -3 -40 5 0 16 132 5
208 -17z m-455 1 c-7 -3 -9 -12 -6 -21 4 -11 1 -14 -12 -12 -25 5 -30 26 -8
32 24 6 41 7 26 1z m22 -24 c3 -5 1 -10 -4 -10 -6 0 -11 5 -11 10 0 6 2 10 4
10 3 0 8 -4 11 -10z m-228 -46 c-3 -3 -12 -4 -19 -1 -8 3 -5 6 6 6 11 1 17 -2
13 -5z m3417 -120 c4 -9 4 -19 1 -22 -3 -3 -5 0 -5 6 0 7 -7 12 -16 12 -8 0
-12 5 -9 10 9 15 22 12 29 -6z m-3571 -1284 c-3 -11 -9 -20 -14 -20 -10 0 -11
12 -3 34 9 22 23 10 17 -14z m31 -45 c3 -8 1 -15 -4 -15 -6 0 -10 7 -10 15 0
8 2 15 4 15 2 0 6 -7 10 -15z m9344 -242 c-10 -2 -28 -2 -40 0 -13 2 -5 4 17
4 22 1 32 -1 23 -4z m190 0 c-16 -2 -40 -2 -55 0 -16 2 -3 4 27 4 30 0 43 -2
28 -4z m122 -57 c0 -2 -9 -2 -20 1 -11 3 -20 9 -20 15 0 5 9 4 20 -2 11 -6 20
-12 20 -14z m-497 -26 c3 -10 -1 -24 -9 -31 -8 -6 -14 -7 -14 -2 0 6 -10 15
-22 20 l-23 11 25 10 c35 15 37 14 43 -8z m392 -10 c3 -5 1 -10 -4 -10 -6 0
-11 5 -11 10 0 6 2 10 4 10 3 0 8 -4 11 -10z m-565 -35 c0 -5 -5 -3 -10 5 -5
8 -10 11 -10 7 0 -5 -5 -5 -11 -1 -8 4 -7 9 2 15 13 8 29 -6 29 -26z m250 16
c0 -5 -6 -12 -12 -14 -7 -3 6 -6 29 -6 33 -1 41 -4 37 -16 -9 -22 -70 -20 -76
3 -3 9 -3 23 -1 30 5 14 23 17 23 3z m-100 -51 c0 -28 -2 -30 -40 -30 -35 0
-40 3 -40 23 0 31 7 37 47 37 30 0 33 -3 33 -30z m-240 6 c0 -2 -7 -6 -15 -10
-8 -3 -15 -1 -15 4 0 6 7 10 15 10 8 0 15 -2 15 -4z m-9 -55 c-8 -5 -20 -7
-28 -4 -21 8 -15 13 15 13 20 0 23 -3 13 -9z m-101 -25 c0 -3 -4 -8 -10 -11
-5 -3 -10 -1 -10 4 0 6 5 11 10 11 6 0 10 -2 10 -4z m190 -32 c0 -22 -2 -25
-15 -14 -8 7 -15 19 -15 26 0 8 7 14 15 14 10 0 15 -10 15 -26z m-327 -123
c-5 -3 -19 -19 -32 -36 -19 -25 -22 -26 -17 -8 9 30 50 75 55 61 2 -6 -1 -13
-6 -17z m87 9 c0 -5 -4 -10 -10 -10 -5 0 -10 5 -10 10 0 6 5 10 10 10 6 0 10
-4 10 -10z m-80 -55 c0 -8 -4 -15 -10 -15 -5 0 -10 7 -10 15 0 8 5 15 10 15 6
0 10 -7 10 -15z m-136 -149 c-3 -15 -8 -25 -11 -23 -2 3 -1 17 3 31 3 15 8 25
11 23 2 -3 1 -17 -3 -31z m-47 -98 c-3 -7 -5 -2 -5 12 0 14 2 19 5 13 2 -7 2
-19 0 -25z m-351 -16 c-10 -2 -22 0 -28 6 -6 6 0 7 19 4 21 -5 23 -7 9 -10z"/>
<path d="M7388 14833 c12 -2 30 -2 40 0 9 3 -1 5 -23 4 -22 0 -30 -2 -17 -4z"/>
<path d="M8880 14779 c0 -5 5 -7 10 -4 6 3 10 8 10 11 0 2 -4 4 -10 4 -5 0
-10 -5 -10 -11z"/>
<path d="M7269 14778 c-6 -21 -2 -65 7 -61 6 2 8 17 6 33 -4 25 -10 38 -13 28z"/>
<path d="M7231 14703 c-1 -12 4 -25 9 -28 12 -7 12 2 0 30 -8 19 -9 19 -9 -2z"/>
<path d="M2715 4900 c3 -5 10 -10 16 -10 5 0 9 5 9 10 0 6 -7 10 -16 10 -8 0
-12 -4 -9 -10z"/>
<path d="M1487 4460 c3 -11 7 -20 9 -20 2 0 4 9 4 20 0 11 -4 20 -9 20 -5 0
-7 -9 -4 -20z"/>
<path d="M1450 4421 c0 -5 5 -13 10 -16 6 -3 10 -2 10 4 0 5 -4 13 -10 16 -5
3 -10 2 -10 -4z"/>
<path d="M1435 4310 c3 -5 12 -10 20 -10 8 0 17 5 20 10 4 6 -5 10 -20 10 -15
0 -24 -4 -20 -10z"/>
<path d="M1500 4285 c0 -8 5 -15 10 -15 6 0 10 7 10 15 0 8 -4 15 -10 15 -5 0
-10 -7 -10 -15z"/>
<path d="M3868 4243 c7 -3 16 -2 19 1 4 3 -2 6 -13 5 -11 0 -14 -3 -6 -6z"/>
<path d="M3950 4196 c0 -9 5 -16 10 -16 6 0 10 4 10 9 0 6 -4 13 -10 16 -5 3
-10 -1 -10 -9z"/>
<path d="M3870 4177 c0 -17 54 -28 84 -17 16 5 13 8 -15 13 -19 3 -42 8 -51
12 -12 5 -18 2 -18 -8z"/>
<path d="M3840 4140 c0 -5 7 -10 16 -10 8 0 12 5 9 10 -3 6 -10 10 -16 10 -5
0 -9 -4 -9 -10z"/>
<path d="M10400 16275 c0 -11 11 -15 40 -15 29 0 40 4 40 15 0 11 -11 15 -40
15 -29 0 -40 -4 -40 -15z"/>
<path d="M10098 16113 c7 -3 16 -2 19 1 4 3 -2 6 -13 5 -11 0 -14 -3 -6 -6z"/>
<path d="M10120 16070 c0 -5 5 -10 11 -10 5 0 7 5 4 10 -3 6 -8 10 -11 10 -2
0 -4 -4 -4 -10z"/>
<path d="M310 2923 c0 -13 5 -23 10 -23 13 0 13 11 0 30 -8 12 -10 11 -10 -7z"/>
<path d="M346 2885 c-3 -8 -1 -17 3 -20 5 -3 11 2 15 10 3 8 1 17 -3 20 -5 3
-11 -2 -15 -10z"/>
<path d="M292 2860 c0 -14 2 -19 5 -12 2 6 2 18 0 25 -3 6 -5 1 -5 -13z"/>
<path d="M261 2814 c0 -11 3 -14 6 -6 3 7 2 16 -1 19 -3 4 -6 -2 -5 -13z"/>
<path d="M220 2770 c-11 -8 0 -10 38 -8 28 1 52 5 52 10 0 11 -72 10 -90 -2z"/>
</g>
</svg>
