<?xml version="1.0" standalone="no"?>
<!DOCTYPE svg PUBLIC "-//W3C//DTD SVG 20010904//EN"
 "http://www.w3.org/TR/2001/REC-SVG-20010904/DTD/svg10.dtd">
<svg version="1.0" xmlns="http://www.w3.org/2000/svg"
 width="2048.000000pt" height="2048.000000pt" viewBox="0 0 2048.000000 2048.000000"
 preserveAspectRatio="xMidYMid meet">

<g transform="translate(0.000000,2048.000000) scale(0.100000,-0.100000)"
fill="#254BDD" stroke="none">
<path d="M2360 19214 c1 -64 1317 -16104 1322 -16109 3 -3 1493 -424 3311
-935 l3307 -929 3212 930 c1767 512 3213 931 3214 932 4 5 1396 16098 1393
16101 -2 2 -3035 8 -6739 15 -3704 6 -7249 14 -7877 17 l-1143 7 0 -29z
m12830 -4368 l0 -954 -117 -49 c-65 -27 -1093 -454 -2286 -949 l-2167 -899
2095 -3 2095 -2 -5 -38 c-3 -20 -118 -1387 -256 -3037 -138 -1650 -251 -3001
-252 -3002 -7 -6 -3972 -1263 -3986 -1263 -12 0 -4149 1148 -4158 1154 -1 1
-58 678 -127 1506 -69 828 -128 1529 -131 1558 l-6 52 973 -2 973 -3 80 -742
c45 -408 83 -744 86 -747 2 -3 477 -126 1055 -274 l1051 -270 99 21 c55 11
575 113 1156 227 582 114 1060 208 1062 211 2 2 60 592 128 1312 l124 1307
-3436 0 -3435 0 -136 944 -136 944 26 12 c14 7 1054 453 2311 992 1257 539
2289 984 2295 989 5 5 -997 9 -2348 9 l-2357 0 -5 23 c-5 26 -265 1901 -265
1916 0 8 1501 11 5000 11 l5000 0 0 -954z"/>
</g>
</svg>
