<?xml version="1.0" standalone="no"?>
<!DOCTYPE svg PUBLIC "-//W3C//DTD SVG 20010904//EN"
 "http://www.w3.org/TR/2001/REC-SVG-20010904/DTD/svg10.dtd">
<svg version="1.0" xmlns="http://www.w3.org/2000/svg"
 width="348.000000pt" height="348.000000pt" viewBox="0 0 348.000000 348.000000"
 preserveAspectRatio="xMidYMid meet">

<g transform="translate(0.000000,348.000000) scale(0.100000,-0.100000)"
fill="#38989A" stroke="none">
<path d="M1509 3024 c-471 -85 -869 -436 -1013 -893 -40 -125 -56 -239 -56
-390 0 -363 127 -669 385 -926 191 -191 425 -313 690 -360 115 -20 333 -21
447 0 479 84 876 432 1022 894 40 127 57 242 57 391 0 357 -127 666 -376 915
-198 199 -433 322 -701 369 -110 20 -349 20 -455 0z m-84 -504 c19 -12 54 -43
77 -70 l43 -49 60 22 c51 18 82 21 215 21 132 0 164 -3 214 -21 l59 -21 51 56
c48 52 139 108 158 96 26 -16 39 -183 19 -237 -9 -22 -5 -34 24 -77 42 -62 52
-97 66 -223 32 -290 -86 -471 -349 -534 -37 -9 -68 -17 -70 -18 -1 -1 8 -24
20 -51 21 -46 23 -62 23 -269 l0 -220 -217 -3 -218 -2 0 107 0 108 -92 0 c-82
0 -100 3 -150 28 -65 32 -109 80 -159 177 -19 36 -57 89 -86 118 -29 29 -53
55 -53 58 0 2 20 4 45 4 68 0 118 -30 164 -99 65 -95 125 -131 217 -132 93 -2
111 6 118 54 4 22 15 60 25 82 l18 41 -71 17 c-157 37 -280 132 -326 254 -58
152 -24 452 59 527 17 16 18 20 4 64 -16 51 -12 143 7 199 10 29 14 31 41 23
16 -5 45 -18 64 -30z"/>
</g>
</svg>
