<?xml version="1.0" standalone="no"?>
<!DOCTYPE svg PUBLIC "-//W3C//DTD SVG 20010904//EN"
 "http://www.w3.org/TR/2001/REC-SVG-20010904/DTD/svg10.dtd">
<svg version="1.0" xmlns="http://www.w3.org/2000/svg"
 width="200.000000pt" height="200.000000pt" viewBox="0 0 200.000000 200.000000"
 preserveAspectRatio="xMidYMid meet">

<g transform="translate(0.000000,200.000000) scale(0.100000,-0.100000)"
fill="#E25026" stroke="none">
<path d="M140 1968 c-2 -55 155 -1754 162 -1759 5 -3 165 -50 355 -103 l346
-98 348 98 c192 53 352 100 357 103 7 5 164 1706 162 1759 0 18 -1730 18
-1730 0z m1416 -375 c-3 -21 -8 -73 -12 -115 l-6 -78 -419 0 -418 0 4 -27 c2
-16 7 -63 11 -105 l6 -78 400 0 400 0 -6 -37 c-7 -42 -56 -595 -56 -628 0 -19
-23 -27 -228 -84 l-228 -62 -224 62 c-124 34 -226 62 -227 63 -5 4 -30 341
-26 349 6 11 211 9 218 -2 3 -6 8 -46 12 -90 l6 -79 120 -32 119 -32 118 33
c135 36 123 21 135 174 3 44 9 92 11 108 l6 27 -381 0 c-356 0 -381 1 -382 18
0 9 -13 157 -28 327 -16 171 -26 313 -24 318 2 4 252 7 554 7 l551 0 -6 -37z"/>
</g>
</svg>
