<?xml version="1.0" standalone="no"?>
<!DOCTYPE svg PUBLIC "-//W3C//DTD SVG 20010904//EN"
 "http://www.w3.org/TR/2001/REC-SVG-20010904/DTD/svg10.dtd">
<svg version="1.0" xmlns="http://www.w3.org/2000/svg"
 width="342.000000pt" height="346.000000pt" viewBox="0 0 342.000000 346.000000"
 preserveAspectRatio="xMidYMid meet">

<g transform="translate(0.000000,346.000000) scale(0.100000,-0.100000)"
fill="#EFD81D" stroke="none">
<path d="M2130 2493 c-43 -7 -144 -45 -183 -70 -61 -39 -118 -103 -151 -173
-29 -62 -31 -71 -31 -185 0 -102 4 -129 24 -178 53 -135 157 -217 411 -329
131 -58 175 -82 212 -119 46 -43 48 -48 48 -100 0 -70 -24 -110 -85 -139 -135
-65 -317 -16 -411 111 -19 27 -40 49 -44 49 -7 0 -246 -135 -259 -146 -2 -2
11 -26 28 -53 53 -82 154 -169 246 -211 116 -55 170 -65 325 -64 120 0 144 3
213 27 145 50 224 117 281 237 30 62 31 71 31 191 0 124 0 125 -38 201 -64
131 -168 209 -425 319 -102 44 -157 74 -189 104 -42 37 -46 46 -50 95 -7 98
51 154 159 153 44 -1 69 -7 103 -27 25 -15 45 -30 45 -34 1 -4 14 -22 29 -40
l29 -33 118 76 c66 43 121 79 123 81 10 9 -21 55 -74 112 -64 70 -164 125
-254 142 -52 10 -180 11 -231 3z"/>
<path d="M1158 1883 c-3 -577 -4 -599 -23 -632 -28 -47 -62 -70 -115 -77 -90
-12 -163 29 -223 128 l-22 37 -133 -80 -132 -81 22 -41 c35 -65 145 -168 211
-200 114 -55 258 -70 392 -42 173 37 282 139 332 312 15 51 17 134 21 666 l3
607 -165 0 -165 0 -3 -597z"/>
</g>
</svg>
