<?xml version="1.0" standalone="no"?>
<!DOCTYPE svg PUBLIC "-//W3C//DTD SVG 20010904//EN"
 "http://www.w3.org/TR/2001/REC-SVG-20010904/DTD/svg10.dtd">
<svg version="1.0" xmlns="http://www.w3.org/2000/svg"
 width="723.000000pt" height="649.000000pt" viewBox="0 0 723.000000 649.000000"
 preserveAspectRatio="xMidYMid meet">

<g transform="translate(0.000000,649.000000) scale(0.100000,-0.100000)"
fill="#000000" stroke="none">
<path d="M0 5890 c1 -563 2 -599 18 -593 16 6 16 6 -1 -11 -18 -19 -22 -106
-5 -106 5 0 7 14 3 30 -6 29 -5 30 26 30 18 0 29 -3 26 -6 -9 -9 11 -44 26
-44 8 0 7 4 -3 11 -11 8 -7 10 20 6 34 -5 34 -5 8 6 -35 13 -37 31 -4 23 14
-3 28 -1 31 4 4 6 11 8 16 4 6 -3 24 0 40 7 22 9 27 14 17 20 -10 7 -9 9 3 9
9 0 33 17 53 37 20 21 36 33 36 27 0 -6 -9 -19 -20 -29 -11 -10 -18 -21 -15
-24 2 -4 -1 -13 -7 -21 -8 -12 -9 -11 -4 3 4 12 2 17 -6 14 -7 -2 -12 -14 -11
-25 2 -15 -2 -20 -11 -16 -8 3 -17 1 -20 -4 -3 -5 3 -12 13 -15 12 -3 22 1 25
10 4 10 15 14 31 11 13 -3 26 0 28 6 2 6 8 7 13 3 5 -5 1 -14 -9 -21 -21 -16
-22 -46 -1 -46 11 0 14 -6 10 -22 -3 -13 1 -8 10 11 8 18 24 35 34 38 11 3 20
10 20 15 0 5 -9 6 -20 3 -11 -4 -20 -2 -20 4 0 6 4 11 9 11 16 0 20 28 6 40
-11 9 -12 7 -9 -7 4 -16 -1 -19 -30 -19 -20 0 -36 4 -36 8 0 4 7 8 16 8 11 0
14 6 10 18 -5 14 -4 14 9 -2 15 -19 15 -19 15 2 0 34 18 28 55 -17 11 -14 14
-21 8 -17 -7 4 -13 2 -13 -3 0 -6 15 -12 33 -12 30 -2 30 -2 5 -6 -26 -4 -33
-13 -29 -37 1 -5 -5 -6 -13 -3 -10 4 -13 1 -9 -9 3 -7 9 -14 15 -14 5 0 7 -4
3 -9 -3 -5 -1 -12 5 -16 6 -4 10 9 10 34 0 33 4 41 19 41 14 0 17 -6 14 -22
-2 -13 1 -34 7 -48 9 -22 10 -21 5 12 -5 30 -3 37 8 32 13 -5 21 5 26 31 2 6
10 19 19 29 16 18 16 18 -5 7 -12 -6 -35 -11 -51 -11 -24 0 -31 5 -36 25 -4
14 -11 23 -16 20 -6 -3 -10 1 -10 9 0 10 -9 16 -22 17 -22 0 -22 1 -3 8 14 6
25 2 38 -12 13 -16 20 -18 29 -9 7 7 17 12 22 12 6 -1 1 -9 -11 -19 -15 -12
-18 -22 -12 -32 8 -12 10 -12 19 1 6 10 10 11 10 3 0 -7 7 -13 16 -13 8 0 12
5 9 10 -3 6 -1 10 4 10 6 0 11 7 11 16 0 8 5 12 10 9 7 -4 8 -11 1 -18 -6 -9
-2 -12 14 -13 17 -1 22 2 18 14 -4 9 -2 13 4 9 6 -4 10 -24 9 -44 -1 -21 3
-42 9 -46 5 -5 -1 -5 -14 -2 -18 6 -23 4 -19 -7 8 -20 -32 -45 -43 -27 -4 8
-12 10 -16 5 -4 -5 -2 -11 5 -13 6 -3 12 -11 12 -19 0 -9 -5 -12 -12 -8 -8 5
-9 2 -5 -10 4 -10 7 -22 7 -27 0 -6 5 -7 10 -4 6 4 8 10 5 15 -3 5 -1 11 4 14
16 11 21 -10 7 -30 -12 -15 -16 -16 -30 -5 -9 7 -13 17 -10 22 3 5 -2 9 -10 9
-9 0 -16 5 -16 12 0 6 -2 9 -5 6 -3 -3 2 -18 10 -34 15 -28 14 -30 -10 -51
-35 -31 -31 -34 12 -12 21 10 44 18 53 18 11 -1 11 -2 -2 -6 -10 -2 -18 -8
-18 -13 0 -5 -8 -7 -17 -3 -10 3 -15 3 -11 -2 9 -10 -40 -37 -53 -29 -5 3 -9
0 -9 -5 0 -6 -6 -11 -13 -11 -7 0 -14 -14 -15 -32 -2 -18 0 -29 4 -25 4 4 12
3 18 -2 6 -4 34 -14 61 -21 28 -7 55 -16 60 -20 6 -4 21 -6 35 -5 34 3 42 -13
22 -44 -9 -14 -12 -23 -7 -19 4 4 15 2 24 -5 14 -11 14 -10 2 6 -10 13 -11 20
-2 30 6 8 8 17 4 20 -3 4 8 7 26 7 19 0 30 -4 26 -10 -4 -6 -11 -7 -17 -4 -7
5 -8 2 -4 -5 6 -9 13 -8 29 6 11 10 17 12 13 5 -7 -11 -4 -11 12 -1 17 11 24
10 38 -2 12 -10 18 -11 21 -2 2 6 16 9 34 6 16 -2 29 0 29 5 0 5 7 9 16 9 15
0 15 -1 0 -12 -8 -7 -13 -15 -10 -18 4 -3 13 0 21 8 20 21 32 19 26 -5 -3 -11
-9 -17 -14 -14 -16 9 -10 -5 10 -25 13 -13 21 -16 24 -8 3 9 8 8 20 -2 23 -18
21 -30 -2 -24 -10 3 -22 0 -25 -6 -4 -6 0 -11 8 -11 19 0 21 -16 3 -23 -8 -3
-6 -10 8 -21 11 -8 15 -16 8 -16 -7 0 -13 -5 -13 -11 0 -5 5 -7 10 -4 6 3 10
1 10 -4 0 -6 -7 -11 -15 -11 -21 0 -19 -20 3 -21 9 0 12 -3 5 -5 -9 -4 -9 -13
-2 -30 14 -38 11 -47 -13 -41 -21 6 -21 5 -5 -7 18 -14 19 -58 2 -85 -6 -10
-4 -12 6 -6 11 7 12 6 3 -6 -5 -8 -11 -31 -13 -51 -3 -38 -22 -102 -85 -283
-38 -109 -59 -153 -124 -262 -24 -40 -42 -78 -40 -85 7 -20 131 -10 221 19 43
13 116 46 163 73 46 27 84 45 84 42 0 -4 4 -2 8 5 4 6 7 -88 7 -210 0 -234 12
-337 41 -337 8 0 17 8 20 18 9 30 83 176 103 201 l18 24 13 -39 c17 -53 84
-185 132 -261 22 -34 37 -67 34 -72 -3 -5 -31 -17 -61 -26 -79 -25 -226 -102
-335 -174 -193 -129 -378 -309 -577 -559 -64 -81 -154 -183 -199 -227 -93 -91
-99 -101 -109 -173 -6 -48 -11 -55 -49 -79 -52 -33 -63 -49 -71 -98 -4 -22
-18 -64 -31 -92 -14 -29 -24 -65 -22 -80 3 -27 5 -26 40 27 22 32 43 80 52
117 18 78 20 81 72 103 24 11 45 25 45 32 1 7 2 38 3 68 1 69 18 96 92 150
l55 41 40 -36 c45 -41 85 -62 97 -51 4 4 -4 17 -18 28 -14 11 -42 35 -63 55
l-37 35 22 31 c213 299 561 633 787 757 79 42 265 120 289 120 17 0 131 -119
132 -137 0 -7 -7 -13 -15 -13 -15 0 -51 -22 -299 -183 -10 -6 -31 -21 -45 -33
-14 -11 -43 -32 -64 -46 -40 -27 -154 -125 -194 -167 -13 -13 -23 -21 -23 -16
0 4 -50 -44 -111 -106 -100 -101 -109 -114 -90 -121 12 -4 20 -15 20 -25 -1
-17 -2 -17 -6 -1 -5 20 -18 23 -28 8 -4 -6 -11 -8 -16 -5 -5 4 -9 -4 -9 -15 0
-16 -4 -20 -16 -16 -9 4 -14 1 -12 -5 2 -6 -17 -32 -42 -56 -36 -36 -46 -52
-43 -72 3 -20 2 -22 -5 -7 -7 16 -10 15 -33 -14 -13 -17 -29 -37 -35 -43 -5
-7 -19 -27 -29 -44 -11 -18 -22 -33 -26 -33 -4 0 -16 -15 -27 -33 -12 -17 -35
-51 -51 -75 -17 -23 -31 -45 -31 -48 0 -5 -18 -29 -60 -81 -6 -7 -10 -19 -10
-28 0 -8 -4 -15 -9 -15 -8 0 -23 -26 -109 -184 -43 -78 -114 -237 -132 -296
-7 -25 -17 -49 -21 -55 -4 -5 -10 -27 -14 -48 -4 -20 -11 -40 -16 -43 -8 -4
-14 -204 -6 -204 1 0 28 14 60 30 l59 29 24 -28 c53 -64 197 -96 347 -79 91
11 248 61 307 98 63 40 142 123 154 162 l11 33 82 3 82 3 58 -81 c149 -208
165 -234 149 -245 -70 -47 -116 -81 -116 -87 0 -3 32 7 71 24 39 16 76 27 82
25 16 -6 160 -281 172 -327 5 -23 1 -28 -44 -47 -28 -12 -51 -26 -51 -32 0
-14 7 -14 66 4 56 17 52 20 90 -78 14 -37 59 -138 100 -225 l74 -157 440 -3
c242 -1 638 -1 881 0 l440 3 -32 45 c-61 83 -329 524 -329 541 0 7 9 9 25 5
102 -26 396 -56 543 -56 89 0 162 -4 162 -9 0 -4 -18 -62 -40 -127 -21 -65
-48 -171 -60 -234 -33 -186 -33 -170 -6 -170 16 0 26 7 29 21 3 12 10 18 16
15 18 -11 23 15 5 28 -16 12 -16 20 -5 91 15 93 19 105 35 105 34 -1 36 -14
21 -121 -18 -130 -18 -139 0 -139 15 0 17 9 36 155 12 99 45 249 61 278 9 17
11 17 35 2 28 -19 82 -14 120 11 21 13 22 12 48 -71 24 -79 65 -252 79 -337
l7 -38 1470 0 1469 0 0 849 c0 662 -3 851 -13 854 -9 4 -9 6 1 6 13 1 18 81 5
81 -5 0 -16 14 -25 31 -12 20 -22 28 -30 23 -8 -5 -7 0 2 11 11 14 12 19 3 22
-7 3 -13 10 -13 16 -1 24 -37 87 -45 80 -4 -5 -5 -3 -1 4 7 12 -85 170 -136
233 -15 19 -28 40 -28 47 0 7 -7 13 -15 13 -8 0 -15 7 -15 16 0 23 -123 175
-137 170 -7 -3 -10 1 -6 9 3 8 -2 18 -11 21 -9 3 -16 12 -16 18 0 7 -18 29
-40 50 -22 20 -40 42 -40 49 0 7 -4 6 -10 -3 -8 -13 -10 -12 -10 3 0 11 -9 31
-21 45 -12 16 -16 28 -10 30 12 4 101 116 101 126 0 3 -8 6 -17 6 -10 0 -37
-27 -63 -64 -38 -53 -48 -61 -62 -52 -9 5 -15 13 -12 17 2 4 -5 10 -16 14 -11
3 -20 11 -20 16 0 6 -5 7 -10 4 -6 -4 -8 -11 -5 -16 4 -5 1 -9 -4 -9 -6 0 -11
16 -11 36 0 31 -2 35 -15 24 -8 -7 -15 -26 -15 -42 0 -17 -4 -27 -10 -23 -6 4
-7 11 -4 17 4 6 -1 17 -11 25 -18 12 -18 13 3 13 31 0 28 30 -7 64 -24 23 -29
25 -35 11 -8 -23 -9 -23 17 -36 22 -12 22 -12 3 10 -11 11 -14 21 -8 21 14 0
43 -41 36 -51 -2 -5 -11 -6 -19 -2 -8 3 -15 0 -15 -6 0 -6 -5 -11 -11 -11 -8
0 -8 4 -1 13 7 8 5 19 -9 36 -14 17 -19 19 -19 7 0 -9 -4 -16 -9 -16 -5 0 -12
-8 -14 -17 -3 -10 -3 5 0 32 5 47 4 49 -10 30 -16 -19 -16 -19 -17 -1 0 11
-18 36 -40 57 -22 21 -40 47 -40 57 0 21 -33 56 -43 45 -4 -3 -7 -1 -7 5 0 7
-6 12 -14 12 -8 0 -21 8 -28 18 -30 42 -209 147 -446 263 -90 44 -167 77 -172
74 -4 -3 -15 1 -22 9 -8 7 -29 17 -46 21 -20 4 -30 11 -25 18 4 6 0 8 -10 4
-20 -8 -22 15 -6 61 10 31 13 32 65 31 66 -2 103 13 175 68 l56 44 37 -16 c57
-24 97 -43 151 -73 l50 -27 -3 -54 c-2 -30 -1 -65 3 -78 10 -42 25 -14 25 48
0 62 8 71 43 45 13 -10 17 -28 17 -70 0 -43 3 -56 15 -56 10 0 17 14 21 40 4
22 12 40 19 40 11 0 84 -49 194 -131 88 -66 211 -181 271 -251 34 -40 81 -95
103 -122 23 -27 70 -67 104 -89 35 -22 63 -44 63 -49 0 -4 -20 -35 -45 -69
-43 -59 -55 -89 -36 -89 5 0 33 32 61 70 50 67 53 70 71 54 10 -9 23 -31 29
-49 8 -23 19 -35 38 -40 47 -11 70 -33 86 -83 12 -35 27 -56 57 -78 22 -16 60
-44 84 -62 44 -32 45 -32 45 -10 0 16 -9 27 -27 35 -53 24 -119 90 -131 130
-13 43 -40 73 -87 94 -16 8 -34 24 -41 36 -19 39 -46 64 -136 124 -69 47 -103
79 -165 156 -181 229 -380 385 -725 571 -87 46 -158 87 -158 89 0 2 14 24 30
49 26 37 39 46 88 59 31 9 86 25 122 35 68 19 230 56 315 71 28 5 97 18 155
28 58 11 126 22 151 26 90 12 104 16 122 37 24 28 18 50 -17 67 -25 11 -48 11
-165 -3 -153 -19 -524 -92 -586 -116 -32 -12 -75 -13 -75 -2 0 5 7 23 15 39
43 86 83 275 101 476 l6 78 42 -6 c22 -2 89 -8 149 -11 129 -8 132 -4 58 87
-27 33 -55 73 -62 87 -7 15 -24 44 -36 64 -13 21 -23 49 -23 63 0 14 -4 25 -9
25 -15 0 -36 73 -22 78 6 2 9 8 5 13 -3 5 2 23 10 41 9 17 14 34 11 36 -3 3
-5 -1 -5 -9 0 -12 -2 -11 -11 1 -9 13 -10 12 -5 -2 7 -23 -1 -23 -13 0 -9 17
-5 18 49 17 32 0 56 3 54 7 -3 4 -12 8 -20 8 -8 0 -14 4 -14 9 0 5 10 7 23 4
18 -4 20 -3 7 7 -13 10 -12 11 3 6 10 -3 23 -6 28 -6 5 0 9 -5 9 -11 0 -5 -4
-8 -8 -5 -4 2 -8 -4 -8 -14 0 -10 3 -17 7 -14 4 2 10 -4 12 -13 4 -15 5 -15 6
-2 0 9 10 19 20 22 26 6 71 -3 71 -15 0 -5 15 7 34 26 38 41 43 43 49 19 4
-17 5 -17 6 0 0 10 -9 22 -21 27 -18 7 -19 9 -5 9 9 1 17 8 17 16 0 13 -4 14
-20 5 -16 -9 -20 -8 -20 5 0 8 3 14 8 14 20 -3 36 2 26 9 -7 4 -8 15 -3 27 6
15 8 16 8 4 2 -29 41 -33 41 -5 0 6 -5 4 -10 -4 -9 -13 -10 -13 -11 0 -1 8 -1
18 0 23 0 4 -4 7 -9 7 -6 0 -10 9 -10 21 0 13 -4 18 -12 13 -10 -6 -10 -4 0 8
9 11 9 18 3 23 -7 4 -5 15 6 32 l17 26 7 -24 c5 -15 6 -6 5 26 -2 49 -2 50
-34 49 -18 -1 -32 3 -32 7 0 5 8 9 18 9 11 0 18 8 19 20 2 25 -12 26 -26 3 -6
-10 -11 -13 -11 -7 0 6 8 18 19 28 16 15 19 15 31 1 7 -8 19 -15 28 -15 8 0
24 -8 34 -17 17 -15 20 -15 28 -3 6 8 10 25 10 37 0 12 4 24 9 28 6 3 8 19 6
35 -3 25 0 30 17 30 15 0 19 5 16 18 -4 15 2 17 42 18 33 0 47 -3 47 -13 0 -7
-6 -12 -13 -11 -7 2 -13 0 -13 -4 -3 -33 1 -38 32 -39 30 -1 31 -1 7 -9 -23
-7 -23 -11 -1 -14 5 0 13 -5 18 -10 5 -5 3 -6 -4 -2 -9 5 -11 2 -7 -7 3 -9 13
-13 25 -10 16 5 18 8 7 14 -10 7 -11 9 0 9 7 0 11 4 8 9 -4 5 0 12 6 14 8 3 6
6 -4 6 -12 1 -15 6 -11 18 5 12 3 14 -7 8 -9 -5 -11 -4 -6 3 4 7 14 12 22 12
8 0 14 5 14 11 0 5 -4 7 -10 4 -6 -3 -10 -1 -10 4 0 6 9 11 20 11 11 0 20 5
20 10 0 6 -6 10 -14 10 -8 0 -18 5 -21 10 -4 6 7 10 25 10 25 0 30 -3 26 -17
-3 -10 -1 -25 4 -33 8 -13 10 -13 10 2 0 9 5 20 12 24 8 5 9 0 5 -15 -3 -14 0
-24 9 -28 8 -3 14 -9 14 -15 0 -5 -6 -6 -12 -1 -7 4 -22 9 -33 10 -10 2 -23 9
-27 16 -6 9 -8 9 -8 0 0 -7 8 -17 18 -23 12 -8 13 -13 4 -16 -6 -3 -9 -10 -6
-16 4 -6 0 -15 -7 -20 -11 -8 -10 -8 4 -4 13 4 29 -4 49 -25 17 -16 28 -23 25
-14 -7 17 4 20 20 4 7 -7 13 -7 17 0 4 6 -7 13 -26 16 -47 9 -72 30 -63 52 7
16 9 16 12 2 6 -25 42 -12 49 17 3 13 10 24 15 24 5 0 6 7 3 15 -4 8 -1 15 5
15 14 0 14 -16 0 -43 -7 -12 -8 -19 -4 -15 4 4 14 0 22 -8 9 -8 18 -12 22 -8
3 4 0 9 -6 11 -7 3 -13 19 -13 36 0 22 3 28 9 18 5 -7 14 -11 20 -7 7 4 9 1 5
-8 -5 -13 -2 -13 20 -3 22 10 26 18 26 60 0 35 4 47 15 47 8 0 15 -4 15 -10 0
-5 6 -8 13 -6 6 1 9 1 5 -1 -5 -3 -8 -12 -9 -21 0 -11 -4 -9 -11 8 l-11 25 -5
-23 c-5 -30 5 -55 18 -47 6 4 10 -5 10 -19 0 -14 -4 -26 -10 -26 -5 0 -10 4
-10 9 0 5 -8 7 -18 4 -13 -3 -17 -12 -15 -31 5 -35 -13 -63 -26 -43 -7 10 -9
7 -8 -11 2 -18 6 -24 16 -20 10 4 12 1 6 -8 -5 -8 -4 -11 3 -7 5 4 13 30 17
57 9 64 28 67 21 3 l-5 -48 10 43 c9 38 12 41 31 31 16 -8 19 -8 13 1 -4 7 -1
17 6 22 11 8 10 9 -3 4 -15 -4 -18 1 -17 27 0 30 1 30 10 9 5 -13 13 -20 19
-17 5 3 10 -2 11 -12 0 -11 3 -13 6 -5 3 7 0 27 -6 44 -9 24 -8 34 1 40 9 5 8
8 -4 8 -10 0 -18 7 -18 16 0 9 -5 12 -12 8 -7 -4 -8 -3 -4 4 11 18 36 14 36
-4 0 -10 5 -14 15 -10 9 3 18 -1 21 -9 4 -8 10 -15 16 -15 5 0 6 6 2 13 -5 9
-4 9 6 0 10 -9 10 -15 -4 -28 -18 -18 -21 -36 -7 -50 5 -6 6 -27 1 -50 l-9
-40 2 40 c0 22 -5 50 -11 62 -15 27 -16 55 -2 33 8 -13 10 -13 10 2 0 9 -4 19
-9 23 -13 7 -24 -32 -14 -47 4 -7 10 -35 13 -63 3 -34 10 -51 21 -53 12 -2 14
5 11 33 -3 27 -1 35 12 35 18 0 22 -16 5 -22 -5 -2 -7 -11 -3 -22 4 -11 9 -14
14 -6 3 6 14 8 23 4 9 -3 14 -11 10 -17 -4 -6 -1 -7 6 -2 9 5 10 10 2 18 -17
17 -13 29 9 22 11 -4 20 -2 20 4 0 6 -7 11 -15 11 -8 0 -15 7 -15 15 0 9 6 12
15 9 8 -4 15 -1 15 6 0 7 -8 10 -19 7 -10 -2 -24 -1 -30 3 -16 10 -19 62 -3
66 7 1 9 0 4 -2 -10 -5 -4 -54 7 -53 3 0 15 4 26 9 19 8 19 9 -2 9 -28 1 -31
21 -3 21 18 0 20 7 20 59 0 48 -3 60 -17 64 -17 4 -17 5 0 6 16 1 17 26 17
386 l0 385 -1642 0 -1643 0 40 -38 c22 -20 56 -48 76 -62 38 -26 121 -94 150
-122 10 -9 20 -14 23 -10 3 3 6 0 6 -7 0 -7 5 -9 12 -5 6 4 8 3 5 -3 -5 -9 73
-93 86 -93 6 0 204 -203 254 -260 50 -57 114 -138 136 -170 9 -14 32 -47 51
-75 19 -27 32 -53 28 -56 -4 -3 -41 -11 -83 -17 -100 -15 -151 -32 -284 -97
-123 -60 -255 -148 -255 -170 0 -23 18 -18 62 17 125 99 221 147 373 188 139
37 212 42 231 15 17 -23 71 -187 79 -242 7 -46 22 -57 29 -20 2 12 14 63 25
112 11 50 24 109 27 133 4 23 9 42 13 42 7 -1 57 -75 86 -128 11 -21 32 -58
47 -83 61 -103 143 -347 169 -499 5 -30 9 -115 10 -188 0 -74 3 -140 6 -148
11 -29 21 -12 38 64 28 119 31 117 54 -23 26 -160 34 -298 28 -509 -3 -122
-10 -232 -15 -246 -6 -16 -24 -30 -48 -39 -22 -7 -94 -34 -162 -59 -67 -24
-124 -43 -126 -41 -2 2 0 47 5 99 13 132 -14 300 -48 300 -12 0 -14 -6 -8 -27
15 -60 12 -62 -49 -48 -30 7 -57 11 -60 8 -2 -3 -28 2 -58 10 -29 8 -62 15
-73 15 -69 2 -154 10 -161 15 -16 9 -104 4 -111 -6 -4 -6 0 -8 10 -4 9 3 18 3
21 -1 2 -4 -14 -8 -37 -8 -23 -1 -34 1 -24 3 9 3 17 9 17 15 0 11 -84 6 -114
-7 -13 -6 -17 -5 -13 2 4 6 0 13 -8 17 -10 3 -15 -1 -16 -12 0 -14 -2 -14 -8
3 l-8 20 -5 -20 c-4 -15 -6 -16 -7 -3 -1 15 -14 16 -113 13 -62 -1 -119 -3
-125 -4 -19 -2 -16 -19 5 -24 9 -3 2 -5 -17 -6 -27 -1 -31 2 -22 13 9 11 0 13
-49 13 -33 0 -60 -3 -60 -6 0 -3 -24 -6 -53 -7 -73 -1 -156 -14 -163 -26 -4
-6 0 -15 7 -20 11 -8 10 -9 -3 -4 -10 3 -18 1 -18 -4 0 -6 -12 -9 -27 -9 -24
2 -25 2 -5 6 12 2 27 14 33 25 9 17 8 19 -8 15 -10 -3 -44 -9 -75 -13 -55 -6
-63 -12 -59 -41 1 -7 -3 -13 -10 -13 -7 0 -9 9 -6 21 5 18 2 20 -21 14 -15 -4
-35 -9 -44 -11 -10 -2 -28 -7 -40 -10 -13 -3 -30 -7 -38 -9 -8 -2 -17 -4 -20
-5 -3 -1 -9 -2 -14 -1 -5 1 -21 -2 -35 -8 -14 -5 -43 -12 -63 -16 -43 -7 -52
-25 -13 -25 14 0 25 4 25 9 0 6 9 9 21 8 19 -1 19 -2 3 -14 -21 -16 -81 -17
-86 -3 -4 13 -108 -7 -108 -21 0 -4 -7 -6 -15 -3 -8 4 -15 2 -15 -4 0 -5 -10
-10 -22 -10 -25 0 -134 -35 -187 -60 -29 -13 -31 -17 -15 -22 10 -4 -3 -7 -30
-7 -30 0 -53 -5 -60 -14 -6 -8 -24 -16 -41 -17 -16 -2 -37 -10 -46 -18 -8 -8
-23 -14 -31 -14 -15 0 -76 -28 -221 -101 -33 -16 -62 -27 -67 -24 -4 2 -10 18
-13 35 -4 16 -11 30 -17 30 -15 0 -12 -50 6 -133 41 -185 145 -343 296 -450
102 -73 251 -142 443 -206 384 -128 728 -142 1092 -46 198 52 440 198 584 351
76 82 174 216 225 310 26 49 52 92 58 96 6 4 81 31 166 59 85 29 161 54 169
57 20 7 9 -55 -31 -188 -48 -157 -111 -271 -218 -393 -58 -66 -252 -259 -287
-286 -16 -11 -57 -43 -93 -71 -36 -27 -70 -50 -77 -50 -6 0 -13 -4 -15 -8 -6
-15 -135 -85 -268 -145 -107 -49 -307 -104 -405 -113 -38 -3 -81 -9 -95 -13
-45 -14 -311 -12 -420 3 -179 26 -228 34 -262 45 -193 62 -260 86 -298 106
-25 13 -66 33 -92 45 -27 12 -48 26 -48 31 0 5 -6 9 -13 9 -13 0 -149 95 -213
149 -17 14 -40 33 -50 42 -17 14 -79 79 -185 195 -43 47 -159 213 -159 227 0
6 -8 20 -18 31 -10 12 -25 37 -33 56 -7 19 -23 50 -35 68 -13 18 -26 47 -29
65 -4 18 -11 37 -15 42 -12 15 -77 213 -94 287 -8 36 -18 94 -21 129 -4 35 -8
69 -10 76 -2 6 -1 14 2 17 3 3 29 -28 58 -70 29 -41 57 -74 61 -72 11 4 11 -3
-15 121 -26 123 -50 281 -56 372 -7 105 12 433 34 580 18 122 83 402 100 433
5 9 10 -7 15 -43 13 -117 106 -466 131 -493 9 -10 11 48 9 250 l-3 263 32 155
c31 145 87 343 108 382 5 10 9 24 9 32 0 44 189 460 221 486 4 3 9 15 13 28 4
12 12 22 17 22 5 0 9 5 9 10 0 7 -453 10 -1340 10 l-1340 0 0 -600z m6977
-122 c-3 -7 -5 -2 -5 12 0 14 2 19 5 13 2 -7 2 -19 0 -25z m63 -4 c0 -2 -7 -4
-15 -4 -8 0 -15 4 -15 10 0 5 7 7 15 4 8 -4 15 -8 15 -10z m90 -8 c0 -3 -4 -8
-10 -11 -5 -3 -10 -1 -10 4 0 6 5 11 10 11 6 0 10 -2 10 -4z m-270 -36 c0 -16
-4 -30 -8 -30 -5 0 -7 14 -4 30 2 17 6 30 8 30 2 0 4 -13 4 -30z m200 20 c0
-5 -7 -7 -15 -4 -8 4 -15 8 -15 10 0 2 7 4 15 4 8 0 15 -4 15 -10z m-155 -9
c-3 -6 3 -14 12 -20 16 -9 14 -10 -8 -9 -20 2 -25 6 -21 20 2 10 9 18 14 18 5
0 7 -4 3 -9z m88 -2 c-13 -13 -5 -49 11 -49 21 0 26 12 14 34 -8 17 -8 19 2 9
19 -17 20 -56 2 -73 -14 -13 -15 -12 -9 3 7 20 -12 23 -46 6 -20 -9 -20 -9 -4
4 21 17 23 52 3 44 -10 -4 -13 -1 -10 8 3 8 13 16 22 18 10 3 19 5 22 6 2 0
-1 -4 -7 -10z m137 -9 c0 -5 -5 -10 -11 -10 -5 0 -7 5 -4 10 3 6 8 10 11 10 2
0 4 -4 4 -10z m-75 -10 c3 -5 1 -10 -4 -10 -6 0 -11 5 -11 10 0 6 2 10 4 10 3
0 8 -4 11 -10z m40 -10 c3 -5 1 -10 -4 -10 -6 0 -11 5 -11 10 0 6 2 10 4 10 3
0 8 -4 11 -10z m-405 -21 c7 -11 9 -23 7 -26 -3 -2 -8 5 -12 16 -3 12 -11 19
-16 16 -5 -4 -9 -1 -9 4 0 18 19 12 30 -10z m-183 -21 c-3 -8 -6 -5 -6 6 -1
11 2 17 5 13 3 -3 4 -12 1 -19z m240 -25 c-3 -10 -5 -2 -5 17 0 19 2 27 5 18
2 -10 2 -26 0 -35z m-26 -1 c-6 -2 -11 -10 -11 -18 0 -8 6 -11 18 -7 14 5 15
3 5 -8 -10 -10 -16 -10 -24 -2 -9 9 -8 20 2 45 11 27 14 29 17 13 3 -10 -1
-21 -7 -23z m76 16 c-3 -8 -6 -5 -6 6 -1 11 2 17 5 13 3 -3 4 -12 1 -19z
m-120 -10 c-5 -16 1 -31 20 -50 20 -21 24 -31 16 -39 -6 -6 -9 -18 -6 -27 5
-10 2 -13 -6 -8 -7 5 -10 18 -7 30 6 24 -9 55 -21 43 -4 -5 -1 -12 7 -17 8 -5
11 -12 7 -17 -12 -12 -27 20 -20 42 5 17 4 18 -10 7 -12 -10 -17 -10 -23 -1
-4 8 -3 9 5 5 8 -5 16 3 24 23 13 36 22 41 14 9z m230 16 c-3 -3 -12 -4 -19
-1 -8 3 -5 6 6 6 11 1 17 -2 13 -5z m-461 -39 c-6 -17 -26 -20 -26 -4 0 5 5 7
10 4 6 -3 10 4 11 17 0 13 3 17 6 10 3 -7 2 -19 -1 -27z m184 31 c0 -3 -4 -8
-10 -11 -5 -3 -10 -1 -10 4 0 6 5 11 10 11 6 0 10 -2 10 -4z m-90 -15 c0 -5
-9 -11 -20 -14 -22 -6 -28 8 -7 16 19 8 27 8 27 -2z m-175 -20 c-3 -6 -11 -11
-16 -11 -5 0 -4 6 3 14 14 16 24 13 13 -3z m455 -3 c0 -18 -2 -20 -9 -8 -6 8
-7 18 -5 22 9 14 14 9 14 -14z m-353 -3 c-8 -19 13 -31 24 -14 8 12 10 12 18
0 8 -13 12 -13 27 0 16 12 17 12 9 -1 -5 -8 -9 -24 -8 -35 2 -11 0 -14 -3 -7
-3 6 -10 12 -15 12 -12 0 -7 -27 21 -97 7 -17 6 -21 -5 -17 -7 3 -17 18 -20
34 -7 30 -40 47 -49 24 -6 -17 3 -44 14 -44 5 0 11 8 13 18 3 10 5 6 6 -10 1
-18 -4 -27 -11 -25 -7 1 -12 -6 -12 -15 2 -20 -11 -24 -21 -8 -4 6 -2 17 4 24
8 10 6 19 -10 37 -15 18 -22 20 -28 10 -6 -10 -10 -9 -14 4 -5 10 -3 14 4 9 7
-4 10 -1 7 6 -5 17 -56 24 -73 10 -9 -8 -14 -7 -18 3 -7 18 79 23 99 6 10 -8
14 -8 14 0 0 6 5 11 11 11 8 0 7 -5 -1 -15 -7 -9 -10 -18 -6 -22 9 -9 36 29
29 41 -4 5 -1 6 6 2 6 -4 9 -12 6 -17 -4 -5 -2 -9 3 -9 10 0 23 52 16 60 -3 2
-9 -2 -13 -9 -6 -10 -10 -10 -16 -1 -4 7 -17 9 -31 6 -14 -4 -24 -2 -24 4 0 5
7 10 15 10 9 0 18 7 21 15 4 8 8 15 11 15 3 0 3 -7 0 -15z m110 9 c-3 -3 -12
-4 -19 -1 -8 3 -5 6 6 6 11 1 17 -2 13 -5z m-171 -15 c3 -6 0 -15 -7 -20 -11
-7 -11 -9 3 -9 9 0 20 -4 23 -10 3 -6 -5 -10 -18 -10 -15 0 -26 7 -29 18 -9
33 12 57 28 31z m431 -21 c-3 -7 -5 -2 -5 12 0 14 2 19 5 13 2 -7 2 -19 0 -25z
m120 10 c-3 -8 -6 -5 -6 6 -1 11 2 17 5 13 3 -3 4 -12 1 -19z m-385 -7 c-5 -3
-9 -17 -7 -31 2 -20 -2 -26 -18 -28 -16 -1 -18 1 -8 7 7 5 15 19 16 32 4 39 5
40 16 33 7 -4 8 -9 1 -13z m-242 -1 c0 -5 -4 -10 -10 -10 -5 0 -10 5 -10 10 0
6 5 10 10 10 6 0 10 -4 10 -10z m30 -20 c0 -5 -4 -10 -10 -10 -5 0 -10 5 -10
10 0 6 5 10 10 10 6 0 10 -4 10 -10z m100 0 c0 -5 -4 -10 -10 -10 -5 0 -10 5
-10 10 0 6 5 10 10 10 6 0 10 -4 10 -10z m510 -6 c0 -8 -4 -12 -10 -9 -5 3
-10 10 -10 16 0 5 5 9 10 9 6 0 10 -7 10 -16z m180 7 c0 -6 -4 -13 -10 -16 -5
-3 -10 1 -10 9 0 9 5 16 10 16 6 0 10 -4 10 -9z m-313 -23 c-3 -8 -6 -5 -6 6
-1 11 2 17 5 13 3 -3 4 -12 1 -19z m20 0 c-3 -8 -6 -5 -6 6 -1 11 2 17 5 13 3
-3 4 -12 1 -19z m329 -34 c-4 -9 -9 -15 -11 -12 -3 3 -3 13 1 22 4 9 9 15 11
12 3 -3 3 -13 -1 -22z m-796 -11 c0 -22 -2 -25 -10 -13 -13 20 -13 40 0 40 6
0 10 -12 10 -27z m300 -3 c0 -5 -4 -10 -9 -10 -6 0 -13 5 -16 10 -3 6 1 10 9
10 9 0 16 -4 16 -10z m-330 -10 c0 -5 -4 -10 -10 -10 -5 0 -10 5 -10 10 0 6 5
10 10 10 6 0 10 -4 10 -10z m26 -39 c-8 -12 -46 -21 -46 -11 0 5 8 11 18 13
29 8 33 7 28 -2z m144 -11 c0 -5 -9 -14 -20 -20 -23 -12 -26 -6 -7 15 14 17
27 19 27 5z m-5959 -9 c-8 -5 -10 -14 -6 -22 6 -11 5 -11 -5 -2 -14 12 -6 33
13 33 8 0 7 -3 -2 -9z m99 -15 c0 -3 -4 -8 -10 -11 -5 -3 -10 -1 -10 4 0 6 5
11 10 11 6 0 10 -2 10 -4z m40 0 c0 -3 -4 -8 -10 -11 -5 -3 -10 -1 -10 4 0 6
5 11 10 11 6 0 10 -2 10 -4z m5820 -16 c0 -5 -4 -10 -10 -10 -5 0 -10 5 -10
10 0 6 5 10 10 10 6 0 10 -4 10 -10z m-6160 -20 c0 -5 -4 -10 -10 -10 -5 0
-10 5 -10 10 0 6 5 10 10 10 6 0 10 -4 10 -10z m260 6 c0 -3 -4 -8 -10 -11 -5
-3 -10 -1 -10 4 0 6 5 11 10 11 6 0 10 -2 10 -4z m-295 -16 c3 -5 1 -10 -4
-10 -6 0 -11 5 -11 10 0 6 2 10 4 10 3 0 8 -4 11 -10z m125 -6 c0 -8 -5 -12
-10 -9 -6 4 -8 11 -5 16 9 14 15 11 15 -7z m90 -4 c0 -15 -7 -20 -27 -20 -25
0 -25 14 0 15 7 1 11 6 10 13 -2 7 2 12 7 12 6 0 10 -9 10 -20z m-73 -37 c-3
-10 -5 -4 -5 12 0 17 2 24 5 18 2 -7 2 -21 0 -30z m5952 17 c13 20 22 9 14
-18 -5 -21 -23 -31 -23 -13 0 5 -10 11 -22 15 -19 5 -20 8 -8 15 10 7 17 6 22
-2 6 -9 10 -8 17 3z m-6239 -4 c0 -2 -7 -7 -16 -10 -8 -3 -12 -2 -9 4 6 10 25
14 25 6z m-70 -31 c0 -8 -4 -15 -10 -15 -5 0 -10 7 -10 15 0 8 5 15 10 15 6 0
10 -7 10 -15z m543 -15 c3 -11 1 -18 -4 -14 -5 3 -9 12 -9 20 0 20 7 17 13 -6z
m5724 -67 c-2 -16 -4 -3 -4 27 0 30 2 43 4 28 2 -16 2 -40 0 -55z m-5790 25
c-3 -8 -6 -5 -6 6 -1 11 2 17 5 13 3 -3 4 -12 1 -19z m-118 -14 c-6 -8 -15
-12 -18 -8 -3 4 0 9 7 11 6 3 9 10 6 15 -4 7 -2 8 5 4 9 -6 9 -11 0 -22z
m5881 16 c0 -5 -4 -10 -10 -10 -5 0 -10 5 -10 10 0 6 5 10 10 10 6 0 10 -4 10
-10z m-6015 -31 c-8 -12 -35 -11 -35 2 0 5 5 7 10 4 6 -3 10 -1 10 5 0 6 5 8
10 5 6 -4 8 -11 5 -16z m5930 -189 c3 -5 1 -10 -4 -10 -6 0 -11 5 -11 10 0 6
2 10 4 10 3 0 8 -4 11 -10z m-168 -72 c-3 -8 -6 -5 -6 6 -1 11 2 17 5 13 3 -3
4 -12 1 -19z m-247 -123 c41 -21 87 -122 101 -221 24 -172 -25 -469 -110 -667
l-19 -44 -143 -46 c-79 -25 -145 -45 -146 -43 -2 1 27 18 64 37 94 48 173 131
221 232 54 113 59 133 77 295 14 117 15 152 5 195 -21 87 -43 116 -91 117 -40
0 -70 -35 -137 -162 -74 -139 -89 -199 -72 -296 24 -137 27 -121 -36 -184 -32
-31 -61 -55 -64 -53 -12 7 -4 314 9 378 39 191 148 408 231 461 32 20 73 20
110 1z m-4345 -750 c106 -47 223 -153 255 -233 12 -32 35 -84 50 -117 16 -33
43 -94 60 -135 18 -41 47 -105 65 -142 52 -105 53 -110 13 -103 -111 20 -127
28 -129 70 -1 27 -8 101 -14 152 -8 76 -90 167 -245 274 -93 65 -117 73 -146
54 -29 -19 -38 -51 -39 -135 0 -51 10 -97 48 -213 47 -146 48 -148 118 -224
134 -148 194 -181 334 -184 102 -3 203 -25 227 -51 26 -28 49 -79 43 -97 -15
-48 -246 -37 -348 16 -86 44 -234 182 -316 293 -168 227 -250 541 -189 722 29
88 95 105 213 53z m2732 -61 c-7 -8 -67 -16 -67 -9 0 6 64 23 69 18 2 -1 2 -6
-2 -9z m-187 -15 c0 -5 -26 -8 -57 -7 -51 1 -53 2 -15 5 23 2 40 8 37 13 -3 4
4 6 15 3 11 -3 20 -9 20 -14z m233 14 c-7 -2 -19 -2 -25 0 -7 3 -2 5 12 5 14
0 19 -2 13 -5z m177 -3 c0 -5 -7 -10 -16 -10 -8 0 -12 5 -9 10 3 6 10 10 16
10 5 0 9 -4 9 -10z m205 -12 c6 -4 2 -8 -7 -8 -10 0 -18 7 -18 17 0 9 3 12 8
7 4 -5 12 -12 17 -16z m1981 11 c14 -24 9 -25 -226 -64 -281 -46 -583 -118
-900 -215 -52 -16 -131 -41 -175 -54 -44 -13 -111 -36 -150 -50 -72 -26 -127
-36 -93 -15 47 27 591 211 703 237 22 6 79 21 126 35 158 47 360 92 569 126
79 13 138 13 146 0z m54 1 c0 -5 -5 -10 -11 -10 -5 0 -7 5 -4 10 3 6 8 10 11
10 2 0 4 -4 4 -10z m-2781 -19 c10 -7 0 -11 -35 -16 -27 -3 -57 -8 -66 -9 -10
-2 -22 2 -28 9 -8 10 -1 12 33 8 27 -3 47 -1 51 6 9 13 26 14 45 2z m788 3
c-3 -3 -12 -4 -19 -1 -8 3 -5 6 6 6 11 1 17 -2 13 -5z m91 -11 c-10 -2 -26 -2
-35 0 -10 3 -2 5 17 5 19 0 27 -2 18 -5z m-1105 -10 c-7 -2 -13 -11 -13 -19 0
-9 -11 -14 -35 -14 -19 0 -35 4 -35 9 0 16 18 22 22 9 4 -10 11 -8 29 4 13 9
29 17 34 17 6 0 4 -3 -2 -6z m1007 -28 c47 -3 137 -16 200 -27 63 -11 129 -23
147 -25 39 -6 43 -25 33 -131 -13 -119 -18 -128 -105 -167 -42 -19 -87 -38
-102 -41 -26 -7 -26 -6 -19 35 8 53 -6 53 -27 0 l-17 -42 -57 7 c-736 82
-1257 9 -1861 -260 -59 -26 -66 -27 -90 -13 -15 8 -43 38 -62 67 -19 28 -38
51 -42 52 -16 0 -6 -27 32 -89 21 -36 36 -69 33 -74 -11 -18 -88 -47 -126 -47
-49 0 -87 20 -123 65 -36 45 -85 162 -81 195 2 24 5 25 65 25 67 0 70 3 48 56
-6 13 21 28 136 76 158 67 338 137 408 158 452 136 713 182 1095 194 196 6
307 3 515 -14z m360 1 c0 -3 -4 -8 -10 -11 -5 -3 -10 -1 -10 4 0 6 5 11 10 11
6 0 10 -2 10 -4z m-1535 -18 c5 4 6 2 2 -3 -3 -6 -20 -12 -39 -13 -18 -1 -46
-7 -61 -14 -23 -9 -31 -8 -37 3 -5 7 -7 16 -4 18 3 3 8 0 12 -6 5 -8 13 -9 22
-3 8 6 27 10 43 10 15 0 27 5 27 11 0 8 4 9 13 0 8 -6 18 -7 22 -3z m40 2 c-3
-5 -11 -10 -16 -10 -6 0 -7 5 -4 10 3 6 11 10 16 10 6 0 7 -4 4 -10z m-320
-70 c3 -5 1 -10 -4 -10 -6 0 -11 5 -11 10 0 6 2 10 4 10 3 0 8 -4 11 -10z
m-95 -30 c0 -5 -9 -10 -19 -10 -11 0 -23 -4 -26 -10 -3 -5 -13 -10 -21 -10 -8
0 -12 5 -9 11 4 6 9 8 12 5 3 -3 15 1 27 9 24 17 36 19 36 5z m-110 -34 c0
-11 -19 -15 -25 -6 -3 5 1 10 9 10 9 0 16 -2 16 -4z m-40 -20 c0 -2 -7 -7 -16
-10 -8 -3 -12 -2 -9 4 6 10 25 14 25 6z m2658 -51 c-19 -20 -128 -65 -155 -65
-55 0 -37 18 45 43 73 24 121 33 110 22z m-2833 -15 c-27 -12 -43 -12 -25 0 8
5 22 9 30 9 10 0 8 -3 -5 -9z m-98 -36 c-3 -3 -12 -4 -19 -1 -8 3 -5 6 6 6 11
1 17 -2 13 -5z m-67 -24 c0 -5 -5 -10 -11 -10 -5 0 -7 5 -4 10 3 6 8 10 11 10
2 0 4 -4 4 -10z m2707 -352 c-3 -8 -6 -5 -6 6 -1 11 2 17 5 13 3 -3 4 -12 1
-19z m-1385 -91 c4 -7 12 -6 22 2 9 7 29 11 46 9 16 -2 32 0 34 6 3 8 7 8 13
0 10 -14 55 -13 66 1 4 6 11 4 17 -5 6 -10 10 -11 10 -3 0 7 11 12 25 11 14
-1 25 -6 25 -10 0 -4 6 -5 14 -2 8 3 17 1 21 -5 4 -8 -27 -11 -97 -12 -57 -1
-112 -3 -123 -5 -11 -1 -65 -6 -120 -10 -55 -4 -108 -11 -119 -16 -10 -6 -31
-11 -45 -13 -14 -1 -75 -12 -135 -24 -59 -12 -111 -20 -114 -17 -3 3 0 7 6 7
21 2 26 4 63 22 19 10 62 20 95 22 77 5 84 7 84 17 0 4 7 8 15 8 8 0 15 5 15
10 0 6 5 10 10 10 6 0 10 -6 10 -13 0 -9 11 -12 35 -9 23 3 35 9 35 19 0 9 6
13 15 9 8 -3 15 -1 15 5 0 12 52 0 62 -14z m-202 -7 c-8 -5 -19 -10 -25 -10
-5 0 -3 5 5 10 8 5 20 10 25 10 6 0 3 -5 -5 -10z m537 4 c-3 -3 -12 -4 -19 -1
-8 3 -5 6 6 6 11 1 17 -2 13 -5z m-604 -31 c-7 -2 -19 -2 -25 0 -7 3 -2 5 12
5 14 0 19 -2 13 -5z m926 -23 c41 -6 77 -12 79 -15 22 -22 -240 -206 -372
-262 -99 -42 -285 -90 -386 -100 -174 -17 -475 3 -635 43 -102 26 -275 88
-272 98 6 17 356 124 512 156 33 7 96 21 140 30 113 25 206 40 305 49 123 12
542 12 629 1z m1541 -160 c0 -5 -2 -10 -4 -10 -3 0 -8 5 -11 10 -3 6 -1 10 4
10 6 0 11 -4 11 -10z m44 -6 c9 -24 7 -28 -9 -14 -17 14 -20 30 -6 30 5 0 12
-7 15 -16z m87 -217 c-8 -8 -11 -7 -11 4 0 20 13 34 18 19 3 -7 -1 -17 -7 -23z
m-104 1 c-3 -8 -6 -5 -6 6 -1 11 2 17 5 13 3 -3 4 -12 1 -19z m168 12 c3 -5 1
-10 -4 -10 -6 0 -11 5 -11 10 0 6 2 10 4 10 3 0 8 -4 11 -10z m102 -72 c-3 -8
-6 -5 -6 6 -1 11 2 17 5 13 3 -3 4 -12 1 -19z m60 -34 c-3 -3 -12 -4 -19 -1
-8 3 -5 6 6 6 11 1 17 -2 13 -5z m50 -26 c-3 -8 -6 -5 -6 6 -1 11 2 17 5 13 3
-3 4 -12 1 -19z m-5851 -293 c-4 -14 -2 -25 3 -25 5 0 12 12 14 28 4 25 4 25
6 -5 1 -26 -3 -33 -17 -33 -27 0 -31 8 -18 35 14 32 20 32 12 0z m4027 -287
c12 -174 80 -377 181 -537 23 -35 27 -50 21 -80 -17 -93 -116 -411 -139 -446
-8 -12 -41 -32 -73 -45 -158 -62 -258 -110 -357 -173 -61 -38 -124 -71 -142
-74 -29 -5 -33 -1 -55 38 -32 57 -49 66 -93 51 -27 -10 -39 -10 -54 -1 -41 26
-88 -9 -102 -76 -5 -26 -10 -30 -35 -29 -17 1 -113 5 -215 9 -127 5 -190 11
-200 20 -8 7 -26 16 -40 20 -14 4 -30 11 -36 16 -11 9 -59 23 -294 83 l-125
33 -67 114 c-37 63 -67 119 -68 124 0 6 32 74 71 150 39 77 95 198 124 270 29
71 59 131 65 133 14 5 89 -17 108 -31 6 -5 12 -6 12 -2 0 4 6 3 13 -2 32 -26
310 -105 412 -118 108 -14 301 -17 366 -5 104 18 175 66 329 220 154 154 334
360 358 407 8 18 18 30 22 28 4 -2 10 -46 13 -97z m1297 87 c-7 -9 -15 -13
-19 -10 -3 3 1 10 9 15 21 14 24 12 10 -5z m1145 -395 c3 -5 -1 -10 -10 -10
-9 0 -13 5 -10 10 3 6 8 10 10 10 2 0 7 -4 10 -10z m-5 -90 c0 -5 -7 -7 -15
-4 -8 4 -15 8 -15 10 0 2 7 4 15 4 8 0 15 -4 15 -10z m-770 -182 c18 -13 40
-33 48 -45 l14 -23 -88 0 c-82 0 -90 2 -116 27 -33 32 -46 24 -30 -19 10 -28
9 -33 -11 -47 -47 -33 -315 -194 -369 -222 l-57 -29 -19 27 c-24 33 -42 23
-35 -21 5 -31 3 -34 -39 -55 -68 -32 -66 -34 -59 62 1 4 7 7 14 7 14 0 316
184 442 270 97 66 154 89 221 90 37 0 60 -6 84 -22z m-4990 -184 c118 -56 135
-70 124 -99 -5 -12 -16 -9 -62 14 -75 37 -99 41 -289 42 -90 0 -165 4 -167 8
-6 9 92 53 166 76 75 24 103 18 228 -41z m233 -116 c19 -7 27 -17 27 -34 0
-13 -4 -24 -10 -24 -19 0 -79 34 -85 48 -8 20 4 34 24 27 9 -4 28 -12 44 -17z
m137 -61 c54 -27 66 -37 68 -60 2 -15 1 -27 -1 -27 -3 0 -34 13 -70 29 -51 23
-67 35 -75 60 -14 40 -6 39 78 -2z m3813 -49 c-3 -18 -10 -38 -14 -44 -10 -13
-138 -69 -144 -63 -2 2 -5 17 -7 34 -3 27 2 32 72 67 94 47 101 47 93 6z
m-3661 -12 c18 -8 52 -22 76 -32 35 -14 42 -21 42 -46 0 -15 -1 -28 -3 -28
-10 0 -134 54 -144 62 -12 10 -19 58 -8 58 2 0 19 -6 37 -14z m3466 -87 c-2
-24 -10 -35 -40 -50 -50 -26 -58 -24 -58 11 0 23 7 35 33 50 48 30 68 27 65
-11z m-3033 -68 c132 -44 276 -87 320 -96 44 -10 86 -22 93 -27 13 -11 17 -68
5 -68 -28 0 -563 174 -649 211 -36 15 -44 23 -44 45 0 21 4 25 18 20 9 -3 125
-41 257 -85z m2903 8 c-2 -16 -15 -30 -40 -41 -77 -36 -462 -158 -500 -158 -4
0 -8 13 -8 30 0 26 5 30 43 41 56 15 379 123 442 148 54 21 69 16 63 -20z
m-514 -26 c-9 -21 -18 -46 -21 -55 -3 -10 -13 -20 -22 -22 -60 -18 -303 -67
-318 -64 -19 4 204 128 230 128 7 0 17 3 21 8 12 11 89 41 109 41 16 1 16 -1
1 -36z m-1670 -79 c147 -37 252 -68 261 -76 13 -12 -7 -10 -161 13 -136 20
-174 34 -174 66 0 16 1 16 74 -3z m-183 -46 c54 -11 58 -14 66 -45 10 -44 27
-47 31 -6 4 35 -5 35 147 8 44 -8 118 -19 165 -25 168 -21 158 -17 170 -61 13
-48 30 -51 30 -4 0 34 1 35 39 35 21 0 59 -3 85 -6 45 -7 46 -7 46 -44 0 -20
-2 -39 -4 -41 -5 -4 -157 4 -286 16 -111 9 -304 46 -490 92 -81 20 -88 25 -82
63 5 34 5 34 83 18z m1113 -25 c4 -16 9 -36 12 -45 4 -13 0 -18 -15 -18 -49 0
-64 27 -41 71 15 27 37 23 44 -8z m116 8 c15 -29 13 -61 -4 -55 -23 9 -28 -14
-6 -28 24 -15 28 -68 5 -68 -18 0 -19 -14 -3 -40 11 -17 10 -25 -2 -47 -30
-53 -40 -40 -40 49 0 46 -5 101 -10 123 -7 31 -6 45 6 63 18 27 40 28 54 3z
m558 -5 c8 -38 3 -40 -248 -101 -183 -44 -205 -45 -225 -5 -12 24 -13 31 -3
34 27 9 72 17 141 26 40 6 91 14 115 19 40 8 44 7 52 -15 12 -32 19 -30 32 6
7 21 18 32 36 35 15 3 38 10 52 14 33 11 44 8 48 -13z m-776 -97 c6 -4 4 -18
-6 -38 l-17 -31 -84 0 c-74 0 -85 2 -85 18 0 9 -3 28 -7 40 l-6 24 97 -4 c54
-1 102 -6 108 -9z m728 -9 c0 -6 -11 -32 -24 -58 -13 -26 -27 -58 -31 -72 -4
-14 -52 -117 -107 -230 l-101 -205 -34 160 c-19 88 -47 199 -63 248 l-28 87
22 4 c29 6 218 45 291 61 79 17 75 16 75 5z m-622 -6 c13 -4 22 -14 22 -26 0
-11 -3 -18 -7 -16 -49 24 -63 32 -63 40 0 9 16 10 48 2z m204 -96 c20 -46 46
-120 57 -165 28 -107 63 -312 55 -324 -3 -5 -16 -9 -29 -9 -17 0 -26 7 -29 23
-40 191 -40 189 -23 202 24 17 22 38 -2 30 -14 -4 -23 0 -30 14 -18 34 -13 61
14 71 14 5 25 14 25 20 0 13 -16 13 -40 0 -23 -12 -28 -6 -45 59 -12 46 -9
161 5 161 3 0 23 -37 42 -82z m-169 -25 c8 -50 1 -64 -28 -51 -21 9 -59 93
-49 109 2 4 19 0 38 -9 26 -12 35 -23 39 -49z m-131 -89 c-17 -69 -33 -128
-36 -131 -2 -3 -14 -2 -25 2 -24 7 -21 33 16 137 42 119 53 142 65 130 8 -8 2
-47 -20 -138z"/>
<path d="M3910 3200 c0 -6 7 -10 15 -10 8 0 15 2 15 4 0 2 -7 6 -15 10 -8 3
-15 1 -15 -4z"/>
<path d="M2820 6475 c0 -27 161 -368 185 -392 8 -7 17 -22 20 -33 3 -11 11
-20 16 -20 5 0 9 -6 9 -14 0 -8 7 -22 16 -30 9 -9 49 -67 89 -129 41 -61 80
-121 88 -132 26 -35 32 -6 13 63 -48 178 -77 324 -97 505 l-23 197 -158 0
c-134 0 -158 -2 -158 -15z"/>
<path d="M3286 6465 c9 -14 20 -25 25 -25 5 0 9 -6 9 -13 0 -7 8 -20 18 -29 9
-8 44 -46 77 -83 71 -81 94 -104 167 -170 91 -83 121 -109 168 -145 25 -19 50
-40 55 -46 6 -5 35 -30 65 -55 30 -24 60 -48 66 -54 6 -5 25 -21 43 -35 32
-24 87 -79 131 -130 12 -14 38 -53 57 -87 19 -35 41 -63 49 -63 20 0 18 10
-25 115 -55 130 -152 441 -212 675 -17 69 -35 135 -40 148 l-9 22 -330 0 -330
0 16 -25z"/>
<path d="M6607 5514 c-8 -8 10 -44 22 -44 5 0 6 11 3 25 -4 25 -13 31 -25 19z"/>
<path d="M7072 5469 c2 -14 -4 -34 -12 -45 -9 -10 -10 -15 -2 -10 6 4 12 3 12
-2 0 -17 -13 -22 -29 -10 -13 10 -14 10 -3 -2 7 -8 23 -15 37 -16 20 -1 23 2
13 13 -8 10 -8 17 1 26 9 9 13 7 17 -11 4 -12 11 -22 16 -22 6 0 3 10 -6 23
-9 12 -23 36 -31 52 -15 30 -15 30 -13 4z"/>
<path d="M6560 5470 c0 -5 7 -10 15 -10 9 0 12 -6 8 -16 -5 -14 -2 -16 20 -10
37 9 56 -29 32 -64 -8 -13 -7 -13 6 -3 9 7 19 9 24 5 4 -4 3 2 -2 13 -13 26
-5 54 9 34 8 -11 9 -11 5 1 -2 8 -9 16 -15 16 -25 3 -27 5 -12 15 12 8 11 9
-6 4 -14 -4 -24 0 -28 10 -6 16 -56 21 -56 5z"/>
<path d="M6877 5459 c7 -7 15 -10 18 -7 3 3 -2 9 -12 12 -14 6 -15 5 -6 -5z"/>
<path d="M6835 5450 c-3 -5 -2 -10 4 -10 5 0 13 5 16 10 3 6 2 10 -4 10 -5 0
-13 -4 -16 -10z"/>
<path d="M7032 5445 c-7 -8 -9 -15 -4 -15 5 0 15 7 22 15 16 19 -1 19 -18 0z"/>
<path d="M7158 5433 c7 -3 16 -2 19 1 4 3 -2 6 -13 5 -11 0 -14 -3 -6 -6z"/>
<path d="M7193 5417 c4 -10 2 -17 -5 -17 -6 0 -9 -3 -5 -6 3 -3 12 -2 20 3 13
7 13 10 -1 23 -14 13 -15 12 -9 -3z"/>
<path d="M6550 5406 c0 -2 7 -6 15 -10 8 -3 15 -1 15 4 0 6 -7 10 -15 10 -8 0
-15 -2 -15 -4z"/>
<path d="M6970 5380 c0 -5 5 -10 11 -10 5 0 7 5 4 10 -3 6 -8 10 -11 10 -2 0
-4 -4 -4 -10z"/>
<path d="M6445 5370 c3 -5 10 -10 16 -10 5 0 9 5 9 10 0 6 -7 10 -16 10 -8 0
-12 -4 -9 -10z"/>
<path d="M6576 5365 c4 -8 8 -15 10 -15 2 0 4 7 4 15 0 8 -4 15 -10 15 -5 0
-7 -7 -4 -15z"/>
<path d="M6908 5373 c6 -2 12 -11 12 -19 0 -8 9 -14 20 -14 11 0 20 -4 20 -10
0 -5 -11 -10 -24 -10 -25 0 -43 -25 -26 -35 6 -4 10 1 10 9 0 9 9 16 21 16 11
0 17 -4 14 -10 -3 -5 -1 -10 5 -10 7 0 10 7 6 15 -5 14 6 20 28 16 5 -1 6 5 2
14 -3 9 -6 20 -6 23 0 4 -4 1 -8 -6 -6 -9 -15 -10 -33 -3 -13 5 -19 10 -14 11
6 0 3 5 -5 10 -8 5 -19 9 -25 9 -5 0 -4 -3 3 -6z"/>
<path d="M7000 5369 c0 -5 5 -7 10 -4 6 3 10 8 10 11 0 2 -4 4 -10 4 -5 0 -10
-5 -10 -11z"/>
<path d="M7177 5373 c-10 -10 -8 -43 2 -43 5 0 7 10 3 22 -4 16 -2 19 8 13 9
-5 11 -4 6 3 -8 14 -10 14 -19 5z"/>
<path d="M6556 5343 c-6 -14 -5 -15 5 -6 7 7 10 15 7 18 -3 3 -9 -2 -12 -12z"/>
<path d="M6888 5353 c7 -3 16 -2 19 1 4 3 -2 6 -13 5 -11 0 -14 -3 -6 -6z"/>
<path d="M6498 5343 c10 -4 10 -8 1 -19 -7 -8 -7 -14 -1 -14 5 0 13 7 16 16 9
23 8 24 -11 23 -12 0 -13 -2 -5 -6z"/>
<path d="M7116 5313 c-6 -14 -5 -15 5 -6 7 7 10 15 7 18 -3 3 -9 -2 -12 -12z"/>
<path d="M7005 5309 c-11 -16 -1 -19 13 -3 7 8 8 14 3 14 -5 0 -13 -5 -16 -11z"/>
<path d="M7091 5304 c0 -11 3 -14 6 -6 3 7 2 16 -1 19 -3 4 -6 -2 -5 -13z"/>
<path d="M7036 5301 c-4 -7 -5 -15 -2 -18 9 -9 19 4 14 18 -4 11 -6 11 -12 0z"/>
<path d="M4295 5289 c-22 -4 -51 -11 -65 -14 -14 -2 -40 -8 -57 -11 -18 -3
-33 -10 -33 -15 0 -5 -8 -9 -17 -10 -16 0 -15 -2 2 -10 17 -8 16 -9 -8 -6 -15
3 -35 -3 -46 -12 -11 -9 -34 -27 -51 -41 -52 -41 -61 -52 -56 -67 3 -8 2 -11
-4 -8 -12 8 -51 -26 -43 -38 4 -6 1 -7 -6 -3 -8 5 -14 0 -18 -13 -3 -12 -11
-21 -18 -21 -23 0 -85 -173 -85 -234 0 -17 16 -60 35 -96 40 -74 42 -86 15
-93 -36 -9 -23 -29 15 -23 35 6 49 -7 20 -18 -25 -9 -17 -26 13 -26 25 -1 26
-2 8 -15 -26 -20 -12 -37 21 -24 14 5 28 8 30 5 3 -3 -2 -52 -9 -111 -8 -58
-11 -108 -7 -111 4 -2 40 -5 79 -5 62 -1 76 3 111 26 21 15 39 32 39 38 0 6 3
8 6 4 6 -5 33 24 87 94 9 13 18 29 18 36 1 7 2 16 3 21 18 66 16 102 -9 172
-15 41 -29 84 -33 95 -3 11 -9 23 -14 26 -5 3 -10 57 -10 120 -1 95 3 124 21
171 12 32 19 63 15 69 -4 7 -3 9 3 6 6 -4 16 0 23 8 7 8 9 15 4 15 -5 0 -2 5
6 11 11 8 8 9 -15 5 -24 -5 -27 -4 -12 4 9 6 17 20 17 31 0 12 4 17 11 14 6
-4 8 -13 5 -21 -3 -8 -1 -14 4 -14 6 0 10 6 10 14 0 8 7 16 15 20 8 3 12 12 9
21 -4 8 -1 22 6 30 7 8 11 15 9 14 -2 -1 -22 -5 -44 -10z m10 -29 c-3 -5 -14
-10 -23 -10 -15 0 -15 2 -2 10 20 13 33 13 25 0z m-85 -4 c0 -2 -7 -7 -16 -10
-8 -3 -12 -2 -9 4 6 10 25 14 25 6z m-50 -32 c0 -8 -4 -12 -10 -9 -5 3 -10 10
-10 16 0 5 5 9 10 9 6 0 10 -7 10 -16z m57 -96 c-2 -18 -4 -6 -4 27 0 33 2 48
4 33 2 -15 2 -42 0 -60z m-124 55 c-7 -2 -19 -2 -25 0 -7 3 -2 5 12 5 14 0 19
-2 13 -5z m-62 -30 c-8 -15 -10 -15 -11 -2 0 17 10 32 18 25 2 -3 -1 -13 -7
-23z m169 -63 c0 -5 -5 -10 -11 -10 -5 0 -7 5 -4 10 3 6 8 10 11 10 2 0 4 -4
4 -10z m-20 -190 c0 -5 -2 -10 -4 -10 -3 0 -8 5 -11 10 -3 6 -1 10 4 10 6 0
11 -4 11 -10z"/>
<path d="M6475 5291 c-3 -5 -2 -12 3 -15 5 -3 9 1 9 9 0 17 -3 19 -12 6z"/>
<path d="M6509 5298 c-6 -21 -5 -37 2 -32 5 3 7 9 4 14 -3 4 1 11 7 13 10 4
10 6 1 6 -7 1 -13 0 -14 -1z"/>
<path d="M6591 5274 c0 -11 3 -14 6 -6 3 7 2 16 -1 19 -3 4 -6 -2 -5 -13z"/>
<path d="M7208 5283 c7 -3 16 -2 19 1 4 3 -2 6 -13 5 -11 0 -14 -3 -6 -6z"/>
<path d="M6948 5273 c6 -2 9 -10 6 -15 -4 -7 -2 -8 5 -4 13 9 5 26 -12 25 -9
0 -8 -2 1 -6z"/>
<path d="M7156 5265 c-18 -19 -21 -29 -5 -19 6 3 15 0 20 -7 8 -12 11 -12 19
1 20 31 -7 51 -34 25z m34 -5 c0 -5 -4 -10 -10 -10 -5 0 -10 5 -10 10 0 6 5
10 10 10 6 0 10 -4 10 -10z"/>
<path d="M512 5257 c-14 -17 0 -39 21 -32 18 7 19 45 1 45 -6 0 -16 -6 -22
-13z m22 -18 c-3 -5 -10 -7 -15 -3 -5 3 -7 10 -3 15 3 5 10 7 15 3 5 -3 7 -10
3 -15z"/>
<path d="M2540 5259 c-183 -16 -268 -35 -248 -54 3 -3 75 4 159 16 124 17 188
20 329 17 164 -4 180 -6 253 -33 84 -32 107 -60 35 -44 -67 16 -234 15 -252 0
-10 -9 -16 -9 -16 -3 0 6 -7 9 -15 6 -8 -4 -15 -12 -15 -20 0 -8 -7 -14 -16
-14 -14 0 -14 -3 -4 -15 7 -8 19 -15 26 -15 8 0 33 -13 56 -30 32 -23 44 -27
55 -19 10 9 12 9 8 -2 -6 -17 100 -93 116 -84 5 4 9 -1 9 -9 0 -9 7 -16 15
-16 8 0 15 8 15 18 0 14 2 15 9 2 6 -8 7 -18 4 -22 -6 -11 15 -38 29 -38 6 0
8 6 5 14 -3 8 1 20 9 27 13 11 14 9 8 -17 -4 -16 -8 -31 -10 -33 -5 -6 17 -31
26 -31 4 0 10 9 13 21 4 15 2 19 -9 15 -8 -3 -14 1 -14 10 0 11 6 14 23 8 12
-4 25 -12 29 -18 5 -7 16 -2 32 13 14 13 23 27 21 31 -3 5 2 11 11 14 24 9 8
24 -20 19 -20 -4 -25 -1 -23 15 0 11 5 18 9 16 5 -3 6 -10 3 -15 -7 -11 3 -11
30 1 17 7 17 9 3 9 -22 1 -24 21 -3 21 22 0 18 33 -6 58 l-20 23 27 -7 c19 -5
25 -4 20 5 -10 16 -76 42 -89 34 -6 -4 -7 -1 -2 7 6 10 4 12 -8 7 -13 -5 -16
-1 -14 16 2 18 -9 27 -54 49 -108 52 -300 69 -549 47z m265 -131 c-9 18 3 15
28 -8 12 -11 27 -18 34 -16 7 3 13 1 13 -3 0 -19 -33 -20 -57 -1 -16 12 -34
18 -45 14 -17 -5 -18 -3 -7 14 12 19 14 19 27 4 7 -9 11 -11 7 -4z m429 -97
c-4 -3 -9 0 -11 7 -3 6 -10 9 -15 6 -7 -4 -8 -2 -4 5 6 9 11 9 22 0 8 -6 12
-15 8 -18z m-29 -81 c3 -5 -1 -10 -10 -10 -9 0 -13 5 -10 10 3 6 8 10 10 10 2
0 7 -4 10 -10z m-8 -26 c-3 -3 -12 -4 -19 -1 -8 3 -5 6 6 6 11 1 17 -2 13 -5z"/>
<path d="M4330 5260 c0 -5 5 -10 10 -10 6 0 10 5 10 10 0 6 -4 10 -10 10 -5 0
-10 -4 -10 -10z"/>
<path d="M6527 5263 c-5 -7 -6 -17 -3 -22 3 -5 -1 -12 -10 -15 -21 -8 -26 -8
-20 2 2 4 0 14 -5 22 -7 11 -8 9 -6 -9 2 -14 8 -26 13 -28 13 -4 77 37 70 45
-4 3 -11 0 -16 -7 -6 -11 -9 -10 -12 5 -2 14 -6 15 -11 7z"/>
<path d="M7066 5254 c-5 -14 -4 -15 9 -4 17 14 19 20 6 20 -5 0 -12 -7 -15
-16z"/>
<path d="M7116 5253 c-6 -14 -5 -15 5 -6 7 7 10 15 7 18 -3 3 -9 -2 -12 -12z"/>
<path d="M6441 5233 c-2 -22 11 -43 28 -42 9 0 11 3 5 5 -7 3 -10 15 -8 27 4
21 4 21 -4 2 l-9 -20 -5 20 c-3 11 -6 15 -7 8z"/>
<path d="M6955 5231 c-3 -5 -2 -12 3 -15 5 -3 9 1 9 9 0 17 -3 19 -12 6z"/>
<path d="M155 5220 c-4 -6 5 -10 20 -10 39 0 65 -17 59 -38 -5 -13 -4 -14 4
-3 15 21 5 36 -32 49 -39 15 -43 15 -51 2z"/>
<path d="M422 5200 c0 -14 2 -19 5 -12 2 6 2 18 0 25 -3 6 -5 1 -5 -13z"/>
<path d="M40 5194 c0 -8 5 -12 10 -9 6 4 8 11 5 16 -9 14 -15 11 -15 -7z"/>
<path d="M270 5196 c0 -9 5 -16 10 -16 6 0 10 4 10 9 0 6 -4 13 -10 16 -5 3
-10 -1 -10 -9z"/>
<path d="M498 5203 c7 -3 16 -2 19 1 4 3 -2 6 -13 5 -11 0 -14 -3 -6 -6z"/>
<path d="M6534 5198 c-3 -5 -12 -7 -19 -6 -8 2 -13 -1 -12 -7 1 -5 6 -9 11 -7
5 2 20 -7 35 -20 22 -20 23 -20 8 -2 -17 20 -17 22 4 35 l21 15 -22 0 c-12 0
-24 -4 -26 -8z"/>
<path d="M6465 5170 c-3 -5 -1 -10 4 -10 6 0 11 5 11 10 0 6 -2 10 -4 10 -3 0
-8 -4 -11 -10z"/>
<path d="M6670 5161 c0 -7 -4 -9 -10 -6 -6 4 -7 -1 -3 -11 6 -15 7 -15 15 1 6
9 7 19 4 22 -3 4 -6 1 -6 -6z"/>
<path d="M6750 5159 c0 -5 5 -7 10 -4 6 3 10 8 10 11 0 2 -4 4 -10 4 -5 0 -10
-5 -10 -11z"/>
<path d="M360 5150 c-8 -5 -12 -12 -9 -15 4 -3 12 1 19 10 14 17 11 19 -10 5z"/>
<path d="M6513 5123 c5 -34 -13 -47 -29 -21 -4 7 -3 8 4 4 7 -4 12 -1 12 10 0
13 -3 14 -15 4 -8 -7 -15 -19 -15 -28 0 -8 3 -13 6 -9 3 3 17 2 31 -4 16 -6
22 -6 18 1 -3 6 0 10 7 10 8 0 9 3 3 8 -5 4 -12 16 -13 27 -2 11 -6 22 -9 25
-3 3 -3 -10 0 -27z"/>
<path d="M380 5125 c0 -9 9 -15 23 -14 17 1 18 2 4 6 -9 2 -15 9 -12 14 4 5 1
9 -4 9 -6 0 -11 -7 -11 -15z"/>
<path d="M177 5100 c7 -8 20 -15 29 -16 9 -1 13 1 9 4 -4 4 -10 7 -13 7 -4 0
-14 4 -22 9 -12 7 -13 6 -3 -4z"/>
<path d="M370 5088 c0 -5 7 -8 15 -4 8 3 15 1 15 -5 0 -6 5 -7 11 -4 13 9 7
15 -20 20 -11 2 -21 -1 -21 -7z"/>
<path d="M360 5055 c0 -8 5 -15 11 -15 5 0 8 4 5 9 -4 5 0 12 6 14 8 3 6 6 -4
6 -10 1 -18 -6 -18 -14z"/>
<path d="M3275 5060 c-3 -5 -3 -10 2 -10 4 0 1 -5 -7 -11 -12 -8 -12 -10 -1
-7 8 2 15 12 17 21 3 19 -2 22 -11 7z"/>
<path d="M3261 4998 c0 -16 2 -18 6 -8 3 8 11 18 17 22 7 5 4 8 -6 8 -12 0
-18 -7 -17 -22z"/>
<path d="M6168 4988 c5 -5 16 -8 23 -6 8 3 3 7 -10 11 -17 4 -21 3 -13 -5z"/>
<path d="M6293 4965 c0 -8 4 -12 9 -9 5 3 6 10 3 15 -9 13 -12 11 -12 -6z"/>
<path d="M6151 4944 c0 -11 3 -14 6 -6 3 7 2 16 -1 19 -3 4 -6 -2 -5 -13z"/>
<path d="M4582 4915 c-122 -42 -242 -113 -242 -142 0 -18 13 -16 41 6 29 22
133 81 144 81 4 0 -15 -22 -42 -49 -59 -58 -98 -122 -108 -174 -10 -53 10 -48
63 13 86 99 227 170 310 155 124 -22 295 -127 352 -215 52 -82 80 -57 53 47
-30 118 -104 205 -222 260 -66 31 -86 36 -175 40 -89 3 -110 1 -174 -22z"/>
<path d="M530 4881 c0 -6 4 -13 10 -16 6 -3 7 1 4 9 -7 18 -14 21 -14 7z"/>
<path d="M750 4862 c0 -5 7 -9 15 -9 8 0 12 4 9 9 -3 4 -9 8 -15 8 -5 0 -9 -4
-9 -8z"/>
<path d="M790 4840 c0 -5 5 -10 10 -10 6 0 10 5 10 10 0 6 -4 10 -10 10 -5 0
-10 -4 -10 -10z"/>
<path d="M6165 4799 c-4 -6 -5 -12 -2 -15 2 -3 7 2 10 11 7 17 1 20 -8 4z"/>
<path d="M2615 4600 c-68 -33 -112 -75 -178 -172 -73 -106 -117 -200 -124
-268 -8 -78 11 -80 51 -7 55 99 101 162 176 238 119 120 180 142 333 115 95
-17 191 -51 273 -97 61 -34 64 -35 64 -11 0 42 -99 142 -164 165 -6 2 -8 7 -5
11 4 4 39 -5 78 -20 71 -26 99 -26 70 0 -48 44 -208 76 -382 76 -125 0 -135
-2 -192 -30z"/>
<path d="M4768 4424 c-5 -4 -8 -18 -8 -31 0 -13 -6 -26 -12 -28 -7 -3 -68 1
-135 8 -101 11 -123 11 -123 0 0 -7 3 -13 8 -13 4 0 63 -7 132 -15 69 -8 126
-15 128 -15 1 0 2 -10 2 -22 0 -13 4 -29 9 -37 7 -11 11 -5 16 22 7 37 8 37
59 38 28 1 62 3 76 4 14 2 59 5 100 6 l75 4 5 -34 c8 -53 30 -52 30 1 l0 44
76 24 c41 13 78 28 81 33 12 19 -10 18 -78 -3 -57 -19 -75 -21 -90 -12 -24 15
-29 15 -29 -2 0 -21 -19 -24 -166 -31 l-130 -7 -10 37 c-5 20 -12 34 -16 29z"/>
<path d="M3686 4274 c-4 -9 -4 -19 -2 -21 8 -8 26 8 26 23 0 19 -16 18 -24 -2z"/>
<path d="M6290 2947 c0 -2 10 -16 23 -31 21 -24 23 -25 24 -6 1 11 -2 18 -8
15 -5 -4 -9 1 -9 9 0 9 -7 16 -15 16 -8 0 -15 -2 -15 -3z"/>
<path d="M4150 2638 c-76 -33 -112 -42 -191 -49 -56 -4 -123 -4 -160 1 -106
16 -111 15 -107 -22 4 -39 48 -64 131 -73 95 -9 302 32 333 66 10 11 21 19 26
19 5 0 16 7 24 15 9 8 12 15 7 15 -4 0 9 11 30 25 40 28 48 46 20 44 -10 -1
-61 -19 -113 -41z"/>
<path d="M6892 2639 c-53 -54 -36 -70 20 -20 24 22 30 33 22 41 -8 8 -19 2
-42 -21z"/>
<path d="M270 2151 c0 -23 66 -81 92 -81 28 0 21 15 -24 52 -62 50 -68 52 -68
29z"/>
<path d="M165 1981 c-8 -14 50 -77 85 -91 43 -18 51 -3 15 26 -16 13 -41 36
-55 49 -27 27 -36 30 -45 16z"/>
<path d="M150 680 c0 -8 32 -84 105 -245 7 -16 27 -70 44 -118 28 -79 31 -101
31 -203 l0 -114 60 0 c43 0 60 4 60 13 0 22 -85 265 -125 357 -20 47 -47 110
-60 141 -47 110 -115 211 -115 169z"/>
<path d="M923 430 c-162 -32 -304 -197 -327 -377 l-7 -53 437 0 437 0 -6 48
c-31 261 -273 433 -534 382z"/>
<path d="M0 102 l0 -102 25 0 c30 0 31 10 9 111 -24 109 -34 107 -34 -9z"/>
</g>
</svg>
