<?xml version="1.0" standalone="no"?>
<!DOCTYPE svg PUBLIC "-//W3C//DTD SVG 20010904//EN"
 "http://www.w3.org/TR/2001/REC-SVG-20010904/DTD/svg10.dtd">
<svg version="1.0" xmlns="http://www.w3.org/2000/svg"
 width="200.000000pt" height="200.000000pt" viewBox="0 0 200.000000 200.000000"
 preserveAspectRatio="xMidYMid meet">

<g transform="translate(0.000000,200.000000) scale(0.100000,-0.100000)"
fill="hsl(332, 67%, 73%)" stroke="none" >
<path d="M899 1880 c-372 -46 -672 -314 -760 -677 -31 -125 -30 -295 1 -418
83 -331 324 -571 656 -656 124 -31 294 -31 418 0 493 126 778 608 651 1102
-64 245 -251 465 -489 574 -137 63 -330 93 -477 75z m214 -339 c137 -67 141
-225 8 -360 -88 -91 -191 -131 -332 -131 -84 0 -142 25 -168 72 -22 38 -9 43
34 13 64 -43 193 -32 305 25 128 65 209 211 150 270 -31 31 -64 40 -148 40
-154 0 -345 -81 -477 -201 -67 -62 -95 -112 -95 -171 0 -56 23 -93 96 -153 33
-27 75 -64 95 -83 l36 -33 69 37 c38 20 87 54 109 74 47 45 75 60 107 60 33 0
48 -18 48 -58 0 -18 4 -31 9 -28 4 3 16 -1 26 -8 17 -12 17 -17 -5 -105 -12
-50 -20 -94 -18 -97 6 -6 122 249 139 305 10 35 17 42 45 47 53 10 67 0 57
-38 -10 -42 -8 -110 4 -131 7 -14 16 -3 46 53 21 38 44 89 50 112 13 42 14 43
61 46 l48 3 -8 -43 c-10 -54 -8 -95 7 -131 10 -22 17 -27 33 -22 58 16 126 22
169 14 59 -11 74 -19 116 -63 26 -27 35 -45 38 -83 5 -42 1 -53 -22 -81 -15
-18 -35 -32 -46 -32 -25 0 -24 8 6 32 39 31 35 87 -9 126 -44 38 -128 58 -194
45 -47 -9 -47 -9 -44 -46 5 -65 -38 -119 -116 -145 -28 -10 -35 -9 -53 9 -14
14 -18 27 -13 42 11 36 32 73 59 105 25 30 25 32 10 61 -8 17 -15 40 -16 53 0
26 1 28 -54 -66 -33 -54 -34 -61 -24 -96 10 -32 9 -44 -7 -76 -24 -48 -83 -84
-140 -84 -69 0 -66 20 20 124 38 46 39 50 27 80 -7 17 -16 45 -21 61 l-7 30
-18 -40 c-61 -142 -129 -261 -157 -276 -29 -16 -58 14 -58 60 l-1 36 -25 -47
c-13 -26 -36 -55 -50 -64 -24 -16 -27 -16 -51 3 -15 10 -32 35 -39 54 -15 42
-17 129 -4 164 l10 25 -39 -22 c-36 -21 -38 -24 -28 -51 14 -41 3 -136 -21
-184 -24 -46 -81 -99 -128 -119 -34 -14 -120 -19 -149 -8 -42 17 -60 115 -31
172 21 41 103 112 170 148 l56 30 -96 69 c-185 134 -228 218 -172 334 30 63
158 189 245 240 163 96 278 131 423 128 87 -2 113 -6 153 -26z"/>
<path d="M841 884 c-36 -56 -55 -132 -46 -181 5 -30 9 -34 20 -22 13 15 66
147 83 212 9 33 9 37 -9 37 -12 0 -30 -17 -48 -46z"/>
<path d="M1350 769 c-12 -23 -19 -43 -17 -45 9 -9 46 32 53 59 10 41 -12 33
-36 -14z"/>
<path d="M543 723 c-28 -19 -68 -52 -88 -74 -30 -33 -36 -47 -33 -77 4 -47 31
-53 89 -20 58 32 91 92 87 156 l-3 50 -52 -35z"/>
<path d="M1145 702 c-25 -30 -26 -33 -8 -23 21 10 49 49 41 55 -2 2 -16 -13
-33 -32z"/>
</g>
</svg>
