<?xml version="1.0" standalone="no"?>
<!DOCTYPE svg PUBLIC "-//W3C//DTD SVG 20010904//EN"
 "http://www.w3.org/TR/2001/REC-SVG-20010904/DTD/svg10.dtd">
<svg version="1.0" xmlns="http://www.w3.org/2000/svg"
 width="600.000000pt" height="600.000000pt" viewBox="0 0 600.000000 600.000000"
 preserveAspectRatio="xMidYMid meet">

<g transform="translate(0.000000,600.000000) scale(0.100000,-0.100000)"
fill="#47C6A3" stroke="none">
<path d="M1622 4977 c9 -12 68 -114 133 -227 179 -311 357 -620 403 -696 16
-28 44 -76 60 -105 17 -30 71 -124 120 -209 49 -85 153 -265 231 -400 363
-629 418 -722 426 -722 7 0 66 100 422 717 64 110 139 241 168 290 29 50 96
167 150 260 54 94 128 222 165 285 60 102 219 378 407 705 34 61 63 113 63
118 0 4 -189 7 -420 7 l-420 0 -30 -52 c-198 -350 -498 -860 -506 -859 -5 1
-50 72 -100 159 -272 472 -331 575 -381 660 l-54 92 -426 0 -425 0 14 -23z"/>
</g>
</svg>
